<svg width="35" height="35" viewBox="0 0 35 35" fill="none" xmlns="http://www.w3.org/2000/svg">
<path d="M17.5 32.0834H7.29167C6.51812 32.0834 5.77625 31.7761 5.22927 31.2291C4.68229 30.6822 4.375 29.9403 4.375 29.1667L4.38958 8.75008C4.38958 7.14591 5.67292 5.83341 7.29167 5.83341H8.75V4.37508C8.75 3.573 9.40625 2.91675 10.2083 2.91675C11.0104 2.91675 11.6667 3.573 11.6667 4.37508V5.83341H23.3333V4.37508C23.3333 3.573 23.9896 2.91675 24.7917 2.91675C25.5937 2.91675 26.25 3.573 26.25 4.37508V5.83341H27.7083C29.3125 5.83341 30.625 7.14591 30.625 8.75008V17.5001H27.7083V14.5834H7.29167V29.1667H17.5V32.0834ZM32.2729 24.7772L33.3083 23.7417C33.4435 23.6068 33.5508 23.4466 33.624 23.2702C33.6971 23.0937 33.7348 22.9046 33.7348 22.7136C33.7348 22.5226 33.6971 22.3335 33.624 22.1571C33.5508 21.9807 33.4435 21.8204 33.3083 21.6855L32.2729 20.6501C32.138 20.5149 31.9777 20.4076 31.8013 20.3345C31.6249 20.2613 31.4358 20.2236 31.2448 20.2236C31.0538 20.2236 30.8647 20.2613 30.6883 20.3345C30.5118 20.4076 30.3516 20.5149 30.2167 20.6501L29.1812 21.6855L32.2729 24.7772ZM31.2375 25.8126L23.9312 33.1188C23.6687 33.3813 23.2896 33.5417 22.9104 33.5417H21.1458C20.7375 33.5417 20.4167 33.2209 20.4167 32.8126V31.048C20.4167 30.6543 20.5771 30.2897 20.8396 30.0126L28.1458 22.7063L31.2375 25.8126Z" fill="white"/>
</svg>
