<svg width="28" height="29" viewBox="0 0 28 29" fill="none" xmlns="http://www.w3.org/2000/svg">
<path d="M0.259765 20.7586C0.400306 16.9332 3.85862 11.6322 7.90148 7.7266C13.0291 2.77087 20.2517 -1.06001 23.5373 1.6016C25.3725 3.08878 27.5514 5.14184 27.5042 6.4756L27.5041 6.47743C27.4877 6.92382 27.2777 7.31913 26.9287 7.56462L24.3546 9.36611C23.4073 10.0293 22.3353 10.7795 21.9612 11.0405C20.8802 11.7959 19.4262 10.8649 18.5094 9.83652C18.2218 9.51452 17.9422 9.35769 17.7839 9.30425L8.78869 17.9979C8.86132 18.1783 9.01488 18.4569 9.28222 18.7544C10.2448 19.8321 10.9994 21.3437 10.2331 22.3543L6.31633 27.5267C6.06828 27.8546 5.69179 28.035 5.28367 28.0218C4.9319 28.0089 3.85886 27.9732 0.922551 23.4759C0.424009 22.712 0.221924 21.7886 0.259765 20.7586ZM24.9944 6.13974C24.5519 5.57756 23.6466 4.61917 22.1688 3.42358C20.4842 2.05734 14.6679 4.32961 9.40697 9.41417C4.14972 14.4952 1.55905 20.341 2.75455 22.1729C3.80009 23.7722 4.63944 24.7996 5.15159 25.3368L8.26316 21.2285C8.17036 21.0218 7.9783 20.6886 7.65344 20.3268C6.41853 18.9441 6.16029 17.3921 7.02585 16.5556L16.4265 7.47006C17.3432 6.5841 18.9368 6.9266 20.1328 8.26573C20.4678 8.64076 20.7856 8.85761 20.9759 8.95254C21.4639 8.6114 22.3334 8.004 23.1179 7.45576L24.9944 6.13974Z" fill="#EB848F"/>
</svg>
