<?xml version="1.0" encoding="utf-8"?>
<!-- Generator: Adobe Illustrator 27.6.1, SVG Export Plug-In . SVG Version: 6.00 Build 0)  -->
<svg version="1.1" id="Layer_1" xmlns="http://www.w3.org/2000/svg" xmlns:xlink="http://www.w3.org/1999/xlink" x="0px" y="0px"
	 viewBox="0 0 477.6 477.7" style="enable-background:new 0 0 477.6 477.7;" xml:space="preserve">
<style type="text/css">
	.st0{fill:#231F20;}
	.st1{fill:#323232;}
	.st2{fill:#050505;}
	.st3{fill:#CAB0B5;}
	.st4{fill:#FFFFFF;}
</style>
<g>
	<path class="st3" d="M294.2,259c0.9,3.5,0.2,22.3-0.4,37.5c-0.4,11.1-0.8,22.4-0.8,30.9c-10.7-2.6-22-2.2-31,1.2
		c-1.4,0.5-3.4,1.3-5.7,2.2c-6.1,2.3-15.3,5.8-24.4,9.1c-1.1-0.2-2.2-0.8-3-1.3c-0.7-0.4-1.1-0.6-1.5-0.8c-0.4-0.1-0.8-0.2-1.4-0.4
		c-1-0.2-2.2-0.5-3.5-1.5c-1-0.7-2.5-3.9-2.8-8.9c-0.3-4.2,1.1-30.8,3.8-47.6c2.8-17.4,3.8-36.7,4-45.4c0.1-4.5,0.6-18.5,1-30.9
		c0.6-17.3,0.8-24.4,0.8-25.2c-0.1-0.1,0-0.1,0-0.2c0.5,0.1,1.1,0.2,1.9,0.4c8.3,1.7,23.4,3.9,38.8,4.6l15.2,7.9
		c-1.9,5.2-5.6,16.2-6.7,27.9c-1,10.8,3.5,18.1,8.3,25.9C289.4,248.9,292.2,253.5,294.2,259z"/>
	<path class="st3" d="M238.8,0C106.9,0,0,106.9,0,238.8s106.9,238.8,238.8,238.8s238.8-106.9,238.8-238.8S370.7,0,238.8,0z
		 M343,351.2c-4.4,9.6-8.1,13.7-9.7,15.4c-0.2,0.2-0.3,0.4-0.4,0.5c-1.7,2-6.1,4.3-10.4,4.4l-198,6.9H124c-2.9,0-5.2-0.8-6.7-2.5
		c-1-1-2.1-2.9-1.7-5.8c0.5-4.6,5.7-7.3,10.8-8.1c1.1-1.9,2.6-3.9,7.2-6.4c4.2-2.3,8.9-2.2,13.1-2.2c2.9,0.1,5.7,0.1,7.4-0.7
		c2.5-1.1,6.2-4,9.5-6.6c3.1-2.5,6.1-4.8,8.5-5.9c6.2-3,10.1-0.1,14.3,2.9l0.4,0.4c0.6,0.4,1.2,0.9,1.7,1.4c0.6,0.4,1.1,0.9,1.7,1.3
		c0.4-0.7,0.8-1.6,1.3-2.5c1.4-2.7,3.7-7.2,4.2-8.5c0.3-4.2,0.7-51.4-0.4-68c-1-14.9-0.9-27.2-0.8-34.5l0.1-2.9
		c0-5.4-3.5-34.2-5.9-49c-3.1,3.1-6.7,5.7-12,7.5c0.7,5.4-0.7,10.8-3.9,15.3c-3.4,4.8-8.4,7.9-14.1,8.8c-5.8,1-11.6-0.4-16.2-3.8
		c-9-6.4-11.6-18.5-6.5-28c-8.5-6.7-15-16.2-19-27.9c-2-6.1-0.6-13.7,3.4-18.7c2.9-3.6,7-5.5,11.6-5.5c0.5-0.8,1-1.5,1.4-2.1
		c0.1-0.2,0.3-0.4,0.4-0.6c0.1-0.8,0.1-2.2,0.1-3.2c-0.1-4,0-5.9,0.5-7.1c1.3-3.4,5.4-4.5,8.8-3.7c0.5,0.1,0.9,0.2,1.1,0.2
		c1.1-1.1,4.7-5.2,6.3-7c0.8-1,1.5-1.8,1.9-2.2c2.3-2.6,7.2-3.7,10.9-1l10.1,7.3c0.6,0.4,1.2,0.7,1.8,1.1c5.1,2.9,10.2,6,22.2,7.4
		c1.9,0.2,7.6-1.3,11.3-2.3l2-0.5c8.2-2.1,18-6.2,25.9-9.5c8.1-3.4,12.8-5.3,15.6-5.7c7.8-1,16.5,0.2,28.1,14.7c1,0.5,2.3,1,3.7,1.6
		c4.5,1.9,10.7,4.4,16,8c9.5,6.4,23.6,17.4,36.7,32.9c11.4,13.6,19.1,30.1,22,47.9c2.5,15,3.7,30.8,3.4,47.1
		C361.4,294.5,348.3,339.6,343,351.2z"/>
</g>
</svg>
