<svg width="31" height="23" viewBox="0 0 31 23" fill="none" xmlns="http://www.w3.org/2000/svg">
<path d="M27.6875 0.5H3.3125C1.73047 0.5 0.5 1.78906 0.5 3.3125V20.1875C0.5 21.7695 1.73047 23 3.3125 23H27.6875C29.2109 23 30.5 21.7695 30.5 20.1875V3.3125C30.5 1.78906 29.2109 0.5 27.6875 0.5ZM3.3125 2.375H27.6875C28.1562 2.375 28.625 2.84375 28.625 3.3125V5.77344C27.3359 6.82812 25.4609 8.35156 19.7773 12.8633C18.7812 13.6836 16.8477 15.5586 15.5 15.5C14.0938 15.5586 12.1602 13.6836 11.1641 12.8633C5.48047 8.35156 3.60547 6.82812 2.375 5.77344V3.3125C2.375 2.84375 2.78516 2.375 3.3125 2.375ZM27.6875 21.125H3.3125C2.78516 21.125 2.375 20.7148 2.375 20.1875V8.17578C3.66406 9.28906 5.77344 10.9883 9.99219 14.3281C11.2227 15.3242 13.332 17.4336 15.5 17.375C17.6094 17.4336 19.7188 15.3242 20.9492 14.3281C25.168 10.9883 27.2773 9.28906 28.625 8.17578V20.1875C28.625 20.7148 28.1562 21.125 27.6875 21.125Z" fill="white"/>
</svg>
