<svg width="50" height="50" viewBox="0 0 50 50" fill="none" xmlns="http://www.w3.org/2000/svg">
<path d="M15.9922 4.72062C16.8007 4.72062 17.457 4.06437 17.457 3.25578C17.3777 1.31223 14.6063 1.31282 14.5273 3.25578C14.5273 4.06437 15.1838 4.72062 15.9922 4.72062Z" fill="white" fill-opacity="0.5"/>
<path d="M34.0046 45.2783C33.1961 45.2783 32.5398 45.9346 32.5398 46.7432C32.6191 48.6868 35.3905 48.6862 35.4695 46.7432C35.4695 45.9346 34.8131 45.2783 34.0046 45.2783Z" fill="white" fill-opacity="0.5"/>
<path d="M34.0046 4.72062C34.8131 4.72062 35.4695 4.06437 35.4695 3.25578C35.3902 1.31223 32.6188 1.31282 32.5398 3.25578C32.5398 4.06437 33.1962 4.72062 34.0046 4.72062Z" fill="white" fill-opacity="0.5"/>
<path d="M15.9922 45.2783C15.1837 45.2783 14.5273 45.9346 14.5273 46.7432C14.6066 48.6868 17.378 48.6862 17.457 46.7432C17.457 45.9346 16.8007 45.2783 15.9922 45.2783Z" fill="white" fill-opacity="0.5"/>
<path d="M46.7419 17.4577C47.5504 17.4577 48.2068 16.8014 48.2068 15.9928C48.1275 14.0493 45.3561 14.0499 45.2771 15.9928C45.2771 16.8014 45.9334 17.4577 46.7419 17.4577Z" fill="white" fill-opacity="0.5"/>
<path d="M3.25488 32.5413C2.44639 32.5413 1.79004 33.1975 1.79004 34.0061C1.86934 35.9497 4.64072 35.9491 4.71972 34.0061C4.71972 33.1975 4.06328 32.5413 3.25488 32.5413Z" fill="white" fill-opacity="0.5"/>
<path d="M46.7419 32.5413C45.9334 32.5413 45.2771 33.1975 45.2771 34.0061C45.3564 35.9497 48.1278 35.9491 48.2068 34.0061C48.2068 33.1975 47.5503 32.5413 46.7419 32.5413Z" fill="white" fill-opacity="0.5"/>
<path d="M3.25488 17.4577C4.06337 17.4577 4.71972 16.8014 4.71972 15.9928C4.64042 14.0493 1.86904 14.0499 1.79004 15.9928C1.79004 16.8014 2.44639 17.4577 3.25488 17.4577Z" fill="white" fill-opacity="0.5"/>
<path d="M27.2853 30.5283C26.0701 33.0383 26.6146 36.2667 28.6259 38.2191C29.4483 39.0416 30.3653 39.7253 31.3315 40.2933C32.4829 36.1577 31.4904 32.1651 27.2853 30.5283Z" fill="white" fill-opacity="0.5"/>
<path d="M23.356 33.4233C23.356 32.4052 23.1336 31.4217 22.7119 30.5283C18.5059 32.1666 17.5159 36.1552 18.6642 40.288C21.2219 38.8129 23.3995 36.5772 23.356 33.4233Z" fill="white" fill-opacity="0.5"/>
<path d="M22.7084 19.4707C23.8927 16.9552 23.4475 13.8567 21.3711 11.78C20.5486 10.9575 19.6318 10.274 18.6657 9.70605C17.5148 13.8405 18.5052 17.832 22.7084 19.4707Z" fill="white" fill-opacity="0.5"/>
<path d="M27.2887 19.4709C31.4927 17.8309 32.4807 13.8433 31.3327 9.71167C30.3702 10.2757 29.4495 10.9567 28.6259 11.7803C26.5497 13.857 26.1045 16.9554 27.2887 19.4709Z" fill="white" fill-opacity="0.5"/>
<path d="M24.9981 22.7993C23.7847 22.7993 22.7976 23.7864 22.7976 24.9998C22.9185 27.9191 27.0782 27.9183 27.1986 24.9998C27.1986 23.7864 26.2114 22.7993 24.9981 22.7993Z" fill="white" fill-opacity="0.5"/>
<path d="M9.71118 18.6652C10.2751 19.6276 10.9562 20.5481 11.7797 21.3716C13.7322 23.3834 16.961 23.9282 19.4707 22.7124C17.8322 18.5068 13.8438 17.5169 9.71118 18.6652Z" fill="white" fill-opacity="0.5"/>
<path d="M11.7795 28.627C10.9569 29.4495 10.2731 30.3665 9.70508 31.3328C13.8396 32.4838 17.8312 31.4931 19.4696 27.2898C16.954 26.1058 13.8557 26.551 11.7795 28.627Z" fill="white" fill-opacity="0.5"/>
<path d="M40.2863 31.3342C39.7223 30.3716 39.0411 29.4507 38.2174 28.627C36.1554 26.5706 33.0864 26.0919 30.5273 27.2898C32.1671 31.4938 36.1547 32.4822 40.2863 31.3342Z" fill="white" fill-opacity="0.5"/>
<path d="M33.4217 23.3569C35.2343 23.3569 36.9373 22.6519 38.2172 21.3717C39.0396 20.5494 39.7232 19.6326 40.2913 18.6666C36.1558 17.5153 32.1634 18.5075 30.5264 22.7124C31.4199 23.1343 32.4035 23.3569 33.4217 23.3569Z" fill="white" fill-opacity="0.5"/>
<path d="M24.9984 11.7484C25.4181 11.0133 25.9373 10.3257 26.5542 9.70879C28.06 8.20314 29.5132 7.38224 30.2957 6.92365C28.9829 4.08724 27.0708 1.75424 25.7099 0.307762C25.3239 -0.102587 24.673 -0.102587 24.2871 0.307762C22.9271 1.75336 21.0166 4.08431 19.7039 6.91818C20.4854 7.37765 21.9295 8.19571 23.4423 9.7084C24.0592 10.3255 24.5787 11.0131 24.9984 11.7484Z" fill="white" fill-opacity="0.5"/>
<path d="M24.9984 38.251C24.5787 38.9863 24.0592 39.6739 23.4423 40.291C21.9295 41.8038 20.4854 42.6218 19.7039 43.0812C21.0166 45.9152 22.9271 48.2461 24.2871 49.6917C24.6731 50.102 25.324 50.102 25.7099 49.6917C27.0707 48.2451 28.9828 45.9122 30.2957 43.0758C29.5132 42.6173 28.0601 41.7963 26.5542 40.2906C25.9374 39.6737 25.4181 38.9862 24.9984 38.251Z" fill="white" fill-opacity="0.5"/>
<path d="M34.7113 13.0859C34.7112 13.9585 34.5922 14.812 34.3691 15.6288C35.1857 15.4058 36.0391 15.2867 36.9115 15.2866C39.0409 15.2867 40.649 15.7338 41.5265 15.9628C42.6038 13.0289 42.9014 10.0272 42.9621 8.04202C42.9792 7.47893 42.519 7.01868 41.9559 7.03587C39.972 7.09641 36.9729 7.39368 34.0408 8.46936C34.2685 9.34699 34.7113 10.9466 34.7113 13.0859Z" fill="white" fill-opacity="0.5"/>
<path d="M15.2865 36.9112C15.2866 36.0388 15.4056 35.1854 15.6287 34.3688C14.8119 34.592 13.9584 34.7109 13.0859 34.711C10.9465 34.711 9.3469 34.2683 8.46936 34.0405C7.39368 36.9727 7.09641 39.9718 7.03587 41.9557C7.01868 42.5188 7.47893 42.979 8.04202 42.9618C10.0272 42.9013 13.0289 42.6036 15.9628 41.5263C15.7337 40.6486 15.2866 39.0406 15.2865 36.9112Z" fill="white" fill-opacity="0.5"/>
<path d="M49.6922 24.2873C48.2466 22.9273 45.9156 21.0168 43.0817 19.7041C42.6223 20.4856 41.8042 21.9299 40.2915 23.4426C39.6744 24.0595 38.9868 24.5789 38.2515 24.9986C38.9866 25.4183 39.6742 25.9376 40.2911 26.5545C41.7968 28.0603 42.6177 29.5134 43.0763 30.2959C45.9127 28.9832 48.2457 27.0711 49.6922 25.7101C50.1024 25.3242 50.1024 24.6733 49.6922 24.2873Z" fill="white" fill-opacity="0.5"/>
<path d="M11.7485 24.9986C11.0131 24.5789 10.3255 24.0595 9.70843 23.4426C8.19574 21.9299 7.37767 20.4856 6.9182 19.7041C4.08422 21.0168 1.75337 22.9273 0.307763 24.2873C-0.102588 24.6733 -0.102588 25.3242 0.307763 25.7101C1.75434 27.071 4.08725 28.9831 6.92367 30.296C7.38217 29.5136 8.20316 28.0603 9.70882 26.5545C10.3257 25.9377 11.0132 25.4184 11.7485 24.9986Z" fill="white" fill-opacity="0.5"/>
<path d="M36.9138 34.711C36.0413 34.7109 35.1877 34.592 34.3709 34.3688C34.594 35.1855 34.713 36.0389 34.7131 36.9112C34.713 39.0407 34.266 40.6488 34.0369 41.5263C36.9708 42.6037 39.9725 42.9012 41.9577 42.9619C42.5207 42.9791 42.981 42.5188 42.9638 41.9557C42.9033 39.9718 42.606 36.9727 41.5303 34.0405C40.6528 34.2683 39.0532 34.711 36.9138 34.711Z" fill="white" fill-opacity="0.5"/>
<path d="M13.0882 15.2871C13.9606 15.2871 14.8139 15.4061 15.6305 15.6292C15.4074 14.8124 15.2884 13.9589 15.2883 13.0864C15.2883 10.947 15.7311 9.34739 15.9589 8.46985C13.0267 7.39417 10.0276 7.0969 8.04373 7.03635C7.48064 7.01917 7.02039 7.47942 7.03758 8.04251C7.09812 10.0277 7.39578 13.0294 8.47312 15.9633C9.35066 15.7342 10.9587 15.2871 13.0882 15.2871Z" fill="white" fill-opacity="0.5"/>
</svg>
