<svg width="50" height="50" viewBox="0 0 50 50" fill="none" xmlns="http://www.w3.org/2000/svg">
<path d="M15.9922 4.72065C16.8007 4.72065 17.457 4.0644 17.457 3.25581C17.3777 1.31226 14.6063 1.31285 14.5273 3.25581C14.5273 4.0644 15.1838 4.72065 15.9922 4.72065Z" fill="#987C9C"/>
<path d="M34.0046 45.2782C33.1961 45.2782 32.5398 45.9345 32.5398 46.7431C32.6191 48.6867 35.3905 48.6861 35.4695 46.7431C35.4695 45.9345 34.8131 45.2782 34.0046 45.2782Z" fill="#987C9C"/>
<path d="M34.0046 4.72065C34.8131 4.72065 35.4695 4.0644 35.4695 3.25581C35.3902 1.31226 32.6188 1.31285 32.5398 3.25581C32.5398 4.0644 33.1962 4.72065 34.0046 4.72065Z" fill="#987C9C"/>
<path d="M15.9922 45.2782C15.1837 45.2782 14.5273 45.9345 14.5273 46.7431C14.6066 48.6867 17.378 48.6861 17.457 46.7431C17.457 45.9345 16.8007 45.2782 15.9922 45.2782Z" fill="#987C9C"/>
<path d="M46.7419 17.4576C47.5504 17.4576 48.2068 16.8014 48.2068 15.9928C48.1275 14.0492 45.3561 14.0498 45.2771 15.9928C45.2771 16.8014 45.9334 17.4576 46.7419 17.4576Z" fill="#987C9C"/>
<path d="M3.25488 32.5414C2.44639 32.5414 1.79004 33.1976 1.79004 34.0062C1.86934 35.9498 4.64072 35.9492 4.71972 34.0062C4.71972 33.1976 4.06328 32.5414 3.25488 32.5414Z" fill="#987C9C"/>
<path d="M46.7419 32.5414C45.9334 32.5414 45.2771 33.1976 45.2771 34.0062C45.3564 35.9498 48.1278 35.9492 48.2068 34.0062C48.2068 33.1976 47.5503 32.5414 46.7419 32.5414Z" fill="#987C9C"/>
<path d="M3.25488 17.4576C4.06337 17.4576 4.71972 16.8014 4.71972 15.9928C4.64042 14.0492 1.86904 14.0498 1.79004 15.9928C1.79004 16.8014 2.44639 17.4576 3.25488 17.4576Z" fill="#987C9C"/>
<path d="M27.2853 30.5283C26.0701 33.0382 26.6146 36.2666 28.6259 38.2191C29.4483 39.0415 30.3653 39.7252 31.3315 40.2933C32.4829 36.1576 31.4904 32.1651 27.2853 30.5283Z" fill="#987C9C"/>
<path d="M23.3559 33.4233C23.3559 32.4051 23.1334 31.4216 22.7118 30.5283C18.5058 32.1665 17.5158 36.1551 18.6641 40.2879C21.2218 38.8128 23.3994 36.5771 23.3559 33.4233Z" fill="#987C9C"/>
<path d="M22.7083 19.4706C23.8926 16.9551 23.4473 13.8567 21.371 11.7799C20.5485 10.9575 19.6316 10.274 18.6656 9.70599C17.5146 13.8405 18.5051 17.832 22.7083 19.4706Z" fill="#987C9C"/>
<path d="M27.2887 19.4709C31.4927 17.8309 32.4807 13.8433 31.3327 9.71164C30.3702 10.2757 29.4495 10.9567 28.6259 11.7803C26.5497 13.8569 26.1045 16.9554 27.2887 19.4709Z" fill="#987C9C"/>
<path d="M24.9981 22.7992C23.7847 22.7992 22.7976 23.7863 22.7976 24.9997C22.9185 27.919 27.0782 27.9182 27.1986 24.9997C27.1986 23.7863 26.2114 22.7992 24.9981 22.7992Z" fill="#987C9C"/>
<path d="M9.71106 18.6651C10.275 19.6275 10.9561 20.548 11.7796 21.3716C13.732 23.3834 16.9608 23.9281 19.4706 22.7124C17.832 18.5067 13.8437 17.5169 9.71106 18.6651Z" fill="#987C9C"/>
<path d="M11.7795 28.6269C10.9569 29.4495 10.2731 30.3664 9.70508 31.3327C13.8396 32.4837 17.8312 31.493 19.4696 27.2897C16.954 26.1057 13.8557 26.551 11.7795 28.6269Z" fill="#987C9C"/>
<path d="M40.2863 31.3341C39.7223 30.3715 39.0411 29.4506 38.2174 28.6269C36.1554 26.5706 33.0864 26.0919 30.5273 27.2897C32.1671 31.4937 36.1547 32.4821 40.2863 31.3341Z" fill="#987C9C"/>
<path d="M33.4216 23.3568C35.2342 23.3568 36.9372 22.6518 38.2171 21.3717C39.0395 20.5493 39.7231 19.6325 40.2912 18.6665C36.1556 17.5153 32.1633 18.5074 30.5262 22.7124C31.4198 23.1342 32.4034 23.3568 33.4216 23.3568Z" fill="#987C9C"/>
<path d="M24.9984 11.7484C25.4181 11.0133 25.9373 10.3257 26.5542 9.70879C28.06 8.20314 29.5132 7.38224 30.2957 6.92365C28.9829 4.08724 27.0708 1.75424 25.7099 0.307762C25.3239 -0.102587 24.673 -0.102587 24.2871 0.307762C22.9271 1.75336 21.0166 4.08431 19.7039 6.91818C20.4854 7.37765 21.9295 8.19571 23.4423 9.7084C24.0592 10.3255 24.5787 11.0131 24.9984 11.7484Z" fill="#987C9C"/>
<path d="M24.9984 38.2511C24.5787 38.9864 24.0592 39.674 23.4423 40.2911C21.9295 41.8039 20.4854 42.6219 19.7039 43.0814C21.0166 45.9154 22.9271 48.2462 24.2871 49.6918C24.6731 50.1022 25.324 50.1022 25.7099 49.6918C27.0707 48.2452 28.9828 45.9123 30.2957 43.0759C29.5132 42.6174 28.0601 41.7964 26.5542 40.2907C25.9374 39.6739 25.4181 38.9864 24.9984 38.2511Z" fill="#987C9C"/>
<path d="M34.7113 13.0859C34.7112 13.9585 34.5922 14.812 34.3691 15.6288C35.1857 15.4058 36.0391 15.2867 36.9115 15.2866C39.0409 15.2867 40.649 15.7338 41.5265 15.9628C42.6038 13.0289 42.9014 10.0272 42.9621 8.04202C42.9792 7.47893 42.519 7.01868 41.9559 7.03587C39.972 7.09641 36.9729 7.39368 34.0408 8.46936C34.2685 9.34699 34.7113 10.9466 34.7113 13.0859Z" fill="#987C9C"/>
<path d="M15.2864 36.9114C15.2865 36.0389 15.4055 35.1856 15.6286 34.369C14.8118 34.5921 13.9583 34.7111 13.0857 34.7112C10.9464 34.7112 9.34678 34.2684 8.46924 34.0406C7.39356 36.9728 7.09629 39.9719 7.03574 41.9558C7.01856 42.5189 7.47881 42.9791 8.04189 42.9619C10.027 42.9014 13.0288 42.6037 15.9627 41.5264C15.7336 40.6488 15.2865 39.0408 15.2864 36.9114Z" fill="#987C9C"/>
<path d="M49.6923 24.2872C48.2467 22.9272 45.9157 21.0167 43.0818 19.704C42.6224 20.4855 41.8043 21.9298 40.2916 23.4425C39.6745 24.0595 38.9869 24.5788 38.2516 24.9985C38.9867 25.4182 39.6743 25.9375 40.2912 26.5544C41.7969 28.0602 42.6178 29.5133 43.0764 30.2958C45.9128 28.9831 48.2458 27.071 49.6923 25.71C50.1025 25.3241 50.1025 24.6732 49.6923 24.2872Z" fill="#987C9C"/>
<path d="M11.7485 24.9985C11.0131 24.5788 10.3255 24.0594 9.70843 23.4425C8.19574 21.9298 7.37767 20.4856 6.9182 19.704C4.08422 21.0167 1.75337 22.9272 0.307763 24.2872C-0.102588 24.6732 -0.102588 25.3241 0.307763 25.7101C1.75434 27.0709 4.08725 28.983 6.92367 30.2959C7.38217 29.5135 8.20316 28.0603 9.70882 26.5544C10.3257 25.9376 11.0132 25.4183 11.7485 24.9985Z" fill="#987C9C"/>
<path d="M36.9139 34.7112C36.0414 34.7111 35.1879 34.5921 34.3711 34.369C34.5941 35.1856 34.7132 36.039 34.7133 36.9114C34.7132 39.0408 34.2661 40.6489 34.037 41.5264C36.971 42.6038 39.9726 42.9013 41.9578 42.962C42.5209 42.9792 42.9811 42.5189 42.9639 41.9558C42.9034 39.9719 42.6061 36.9728 41.5304 34.0406C40.6529 34.2684 39.0533 34.7112 36.9139 34.7112Z" fill="#987C9C"/>
<path d="M13.0883 15.287C13.9607 15.2871 14.8141 15.4061 15.6307 15.6292C15.4075 14.8124 15.2886 13.9589 15.2885 13.0863C15.2885 10.947 15.7312 9.34736 15.959 8.46982C13.0269 7.39414 10.0277 7.09687 8.04385 7.03632C7.48076 7.01914 7.02051 7.47939 7.0377 8.04248C7.09824 10.0276 7.3959 13.0294 8.47324 15.9633C9.35078 15.7342 10.9588 15.2871 13.0883 15.287Z" fill="#987C9C"/>
</svg>
