<svg width="52" height="51" viewBox="0 0 52 51" fill="none" xmlns="http://www.w3.org/2000/svg">
<ellipse cx="26" cy="25.5" rx="26" ry="25.5" fill="#EB848F"/>
<path d="M19.7541 11.7093C20.3147 11.7093 20.7698 11.2631 20.7698 10.7132C20.7148 9.39162 18.7933 9.39202 18.7385 10.7132C18.7385 11.2631 19.1937 11.7093 19.7541 11.7093Z" fill="white"/>
<path d="M32.2432 39.2881C31.6826 39.2881 31.2275 39.7343 31.2275 40.2842C31.2825 41.6058 33.204 41.6054 33.2588 40.2842C33.2588 39.7343 32.8037 39.2881 32.2432 39.2881Z" fill="white"/>
<path d="M32.2432 11.7093C32.8037 11.7093 33.2588 11.2631 33.2588 10.7132C33.2038 9.39162 31.2823 9.39202 31.2275 10.7132C31.2275 11.2631 31.6827 11.7093 32.2432 11.7093Z" fill="white"/>
<path d="M19.7541 39.2881C19.1936 39.2881 18.7385 39.7343 18.7385 40.2842C18.7935 41.6058 20.715 41.6054 20.7698 40.2842C20.7698 39.7343 20.3147 39.2881 19.7541 39.2881Z" fill="white"/>
<path d="M41.0742 20.3709C41.6348 20.3709 42.0898 19.9247 42.0898 19.3748C42.0349 18.0532 40.1134 18.0536 40.0586 19.3748C40.0586 19.9247 40.5137 20.3709 41.0742 20.3709Z" fill="white"/>
<path d="M10.9233 30.6279C10.3628 30.6279 9.90771 31.0742 9.90771 31.624C9.96269 32.9457 11.8842 32.9453 11.939 31.624C11.939 31.0742 11.4838 30.6279 10.9233 30.6279Z" fill="white"/>
<path d="M41.0742 30.6279C40.5137 30.6279 40.0586 31.0742 40.0586 31.624C40.1136 32.9457 42.0351 32.9453 42.0898 31.624C42.0898 31.0742 41.6347 30.6279 41.0742 30.6279Z" fill="white"/>
<path d="M10.9233 20.3709C11.4839 20.3709 11.939 19.9247 11.939 19.3748C11.884 18.0532 9.96249 18.0536 9.90771 19.3748C9.90771 19.9247 10.3628 20.3709 10.9233 20.3709Z" fill="white"/>
<path d="M27.5845 29.2588C26.742 30.9656 27.1195 33.1609 28.514 34.4885C29.0842 35.0478 29.72 35.5127 30.3899 35.899C31.1882 33.0868 30.5001 30.3718 27.5845 29.2588Z" fill="white"/>
<path d="M24.86 31.2274C24.86 30.535 24.7058 29.8663 24.4134 29.2588C21.4973 30.3728 20.8109 33.085 21.6071 35.8953C23.3804 34.8923 24.8902 33.372 24.86 31.2274V31.2274Z" fill="white"/>
<path d="M24.411 21.7391C25.2321 20.0285 24.9234 17.9216 23.4838 16.5094C22.9136 15.9501 22.2779 15.4853 21.6081 15.0991C20.8101 17.9106 21.4968 20.6248 24.411 21.7391Z" fill="white"/>
<path d="M27.5869 21.7393C30.5016 20.6241 31.1866 17.9125 30.3907 15.103C29.7234 15.4866 29.085 15.9496 28.514 16.5097C27.0745 17.9218 26.7658 20.0287 27.5869 21.7393Z" fill="white"/>
<path d="M25.9988 24.0029C25.1575 24.0029 24.4731 24.6742 24.4731 25.4993C24.557 27.4844 27.441 27.4838 27.5245 25.4993C27.5245 24.6742 26.84 24.0029 25.9988 24.0029V24.0029Z" fill="white"/>
<path d="M15.3997 21.1917C15.7907 21.8461 16.2629 22.4721 16.8338 23.0321C18.1875 24.4001 20.4262 24.7705 22.1663 23.9438C21.0302 21.084 18.2649 20.4109 15.3997 21.1917V21.1917Z" fill="white"/>
<path d="M16.8335 27.9657C16.2632 28.5251 15.7891 29.1486 15.3953 29.8057C18.2619 30.5883 21.0294 29.9147 22.1653 27.0564C20.4212 26.2513 18.273 26.5541 16.8335 27.9657Z" fill="white"/>
<path d="M36.5982 29.8065C36.2071 29.1519 35.7349 28.5257 35.1638 27.9656C33.7341 26.5673 31.6063 26.2417 29.832 27.0563C30.9689 29.915 33.7336 30.5871 36.5982 29.8065V29.8065Z" fill="white"/>
<path d="M31.8392 24.3821C33.0959 24.3821 34.2767 23.9027 35.1641 23.0322C35.7343 22.473 36.2083 21.8495 36.6021 21.1927C33.7348 20.4098 30.9668 21.0845 29.8318 23.9438C30.4513 24.2307 31.1333 24.3821 31.8392 24.3821Z" fill="white"/>
<path d="M25.999 16.4884C26.29 15.9885 26.65 15.521 27.0777 15.1015C28.1217 14.0776 29.1293 13.5194 29.6718 13.2076C28.7616 11.2788 27.4359 9.69239 26.4923 8.70879C26.2247 8.42975 25.7734 8.42975 25.5058 8.70879C24.5629 9.69179 23.2383 11.2768 22.3281 13.2039C22.87 13.5163 23.8713 14.0726 24.9201 15.1012C25.3478 15.5208 25.708 15.9884 25.999 16.4884V16.4884Z" fill="white"/>
<path d="M25.999 34.5107C25.708 35.0108 25.3478 35.4783 24.9201 35.898C23.8713 36.9267 22.87 37.4829 22.3281 37.7953C23.2383 39.7224 24.5629 41.3074 25.5058 42.2904C25.7734 42.5694 26.2247 42.5694 26.4923 42.2904C27.4358 41.3067 28.7615 39.7204 29.6718 37.7916C29.1293 37.4798 28.1218 36.9215 27.0777 35.8977C26.6501 35.4782 26.29 35.0107 25.999 34.5107V34.5107Z" fill="white"/>
<path d="M32.7332 17.398C32.7331 17.9914 32.6507 18.5718 32.4959 19.1272C33.0621 18.9755 33.6538 18.8946 34.2587 18.8945C35.735 18.8946 36.85 19.1986 37.4584 19.3543C38.2054 17.3593 38.4117 15.3181 38.4537 13.9682C38.4656 13.5853 38.1465 13.2723 37.7561 13.284C36.3806 13.3252 34.3012 13.5273 32.2683 14.2588C32.4262 14.8556 32.7332 15.9433 32.7332 17.398V17.398Z" fill="white"/>
<path d="M19.2652 33.599C19.2653 33.0058 19.3477 32.4255 19.5024 31.8702C18.9361 32.022 18.3444 32.1029 17.7394 32.1029C16.2561 32.1029 15.1471 31.8018 14.5386 31.647C13.7928 33.6408 13.5867 35.6802 13.5448 37.0292C13.5328 37.4121 13.8519 37.7251 14.2424 37.7134C15.6187 37.6723 17.6999 37.4699 19.7341 36.7373C19.5752 36.1405 19.2653 35.047 19.2652 33.599V33.599Z" fill="white"/>
<path d="M43.1202 25.015C42.1179 24.0902 40.5018 22.7911 38.537 21.8984C38.2184 22.4299 37.6512 23.412 36.6024 24.4406C36.1746 24.8601 35.6978 25.2133 35.188 25.4987C35.6977 25.7841 36.1744 26.1372 36.6021 26.5567C37.6461 27.5806 38.2152 28.5688 38.5332 29.1009C40.4997 28.2082 42.1173 26.9079 43.1202 25.9825C43.4046 25.7201 43.4046 25.2775 43.1202 25.015V25.015Z" fill="white"/>
<path d="M16.8123 25.4987C16.3025 25.2133 15.8257 24.8601 15.3979 24.4406C14.3491 23.412 13.7819 22.4299 13.4633 21.8984C11.4985 22.7911 9.88241 24.0902 8.88013 25.015C8.59562 25.2775 8.59562 25.7201 8.88013 25.9825C9.88309 26.9079 11.5006 28.2081 13.4671 29.1009C13.785 28.5688 14.3543 27.5807 15.3982 26.5567C15.8259 26.1373 16.3025 25.7841 16.8123 25.4987V25.4987Z" fill="white"/>
<path d="M34.2601 32.1029C33.6551 32.1029 33.0633 32.022 32.497 31.8702C32.6517 32.4255 32.7342 33.0058 32.7343 33.5991C32.7342 35.047 32.4242 36.1406 32.2654 36.7373C34.2996 37.4699 36.3807 37.6722 37.7571 37.7135C38.1475 37.7251 38.4666 37.4122 38.4547 37.0293C38.4127 35.6802 38.2066 33.6408 37.4608 31.647C36.8524 31.8018 35.7433 32.1029 34.2601 32.1029V32.1029Z" fill="white"/>
<path d="M17.741 18.8945C18.3459 18.8945 18.9376 18.9754 19.5037 19.1271C19.349 18.5717 19.2666 17.9913 19.2665 17.398C19.2665 15.9432 19.5735 14.8555 19.7314 14.2588C17.6984 13.5273 15.6191 13.3252 14.2436 13.284C13.8532 13.2723 13.5341 13.5853 13.546 13.9682C13.588 15.3181 13.7943 17.3593 14.5413 19.3543C15.1497 19.1985 16.2646 18.8945 17.741 18.8945V18.8945Z" fill="white"/>
</svg>
