<svg width="40" height="40" viewBox="0 0 40 40" fill="none" xmlns="http://www.w3.org/2000/svg">
<circle cx="20" cy="20" r="20" fill="white"/>
<path d="M15.1956 9.18403C15.6267 9.18403 15.9768 8.83403 15.9768 8.40279C15.9345 7.36623 14.4564 7.36654 14.4143 8.40279C14.4143 8.83403 14.7644 9.18403 15.1956 9.18403Z" fill="#EB848F"/>
<path d="M24.8025 30.8145C24.3713 30.8145 24.0212 31.1645 24.0212 31.5957C24.0635 32.6323 25.5416 32.632 25.5837 31.5957C25.5837 31.1645 25.2337 30.8145 24.8025 30.8145Z" fill="#EB848F"/>
<path d="M24.8025 9.18403C25.2337 9.18403 25.5837 8.83403 25.5837 8.40279C25.5414 7.36623 24.0634 7.36654 24.0212 8.40279C24.0212 8.83403 24.3713 9.18403 24.8025 9.18403Z" fill="#EB848F"/>
<path d="M15.1956 30.8145C14.7644 30.8145 14.4143 31.1645 14.4143 31.5957C14.4566 32.6323 15.9347 32.632 15.9768 31.5957C15.9768 31.1645 15.6267 30.8145 15.1956 30.8145Z" fill="#EB848F"/>
<path d="M31.5955 15.9775C32.0267 15.9775 32.3767 15.6275 32.3767 15.1962C32.3344 14.1597 30.8563 14.16 30.8142 15.1962C30.8142 15.6275 31.1643 15.9775 31.5955 15.9775Z" fill="#EB848F"/>
<path d="M8.40258 24.022C7.97139 24.022 7.62134 24.372 7.62134 24.8032C7.66363 25.8398 9.14169 25.8395 9.18383 24.8032C9.18383 24.372 8.83373 24.022 8.40258 24.022Z" fill="#EB848F"/>
<path d="M31.5955 24.022C31.1643 24.022 30.8142 24.372 30.8142 24.8032C30.8565 25.8398 32.3346 25.8395 32.3767 24.8032C32.3767 24.372 32.0266 24.022 31.5955 24.022Z" fill="#EB848F"/>
<path d="M8.40258 15.9775C8.83378 15.9775 9.18383 15.6275 9.18383 15.1962C9.14154 14.1597 7.66347 14.16 7.62134 15.1962C7.62134 15.6275 7.97139 15.9775 8.40258 15.9775Z" fill="#EB848F"/>
<path d="M21.2188 22.9482C20.5708 24.2869 20.8612 26.0087 21.9338 27.05C22.3725 27.4886 22.8615 27.8533 23.3768 28.1562C23.9909 25.9506 23.4616 23.8212 21.2188 22.9482Z" fill="#EB848F"/>
<path d="M19.1231 24.4922C19.1231 23.9492 19.0045 23.4247 18.7796 22.9482C16.5364 23.822 16.0084 25.9492 16.6208 28.1534C17.9849 27.3667 19.1463 26.1743 19.1231 24.4922V24.4922Z" fill="#EB848F"/>
<path d="M18.7777 17.0506C19.4093 15.709 19.1719 14.0565 18.0645 12.9489C17.6258 12.5102 17.1368 12.1457 16.6216 11.8428C16.0078 14.0478 16.536 16.1766 18.7777 17.0506Z" fill="#EB848F"/>
<path d="M21.2207 17.0506C23.4628 16.1759 23.9897 14.0492 23.3775 11.8457C22.8642 12.1465 22.3731 12.5097 21.9338 12.949C20.8266 14.0565 20.5891 15.709 21.2207 17.0506Z" fill="#EB848F"/>
<path d="M19.999 18.8262C19.3519 18.8262 18.8254 19.3526 18.8254 19.9998C18.8899 21.5567 21.1084 21.5563 21.1726 19.9998C21.1726 19.3526 20.6461 18.8262 19.999 18.8262V18.8262Z" fill="#EB848F"/>
<path d="M11.8459 16.6213C12.1467 17.1346 12.51 17.6255 12.9492 18.0647C13.9905 19.1377 15.7125 19.4282 17.051 18.7798C16.1771 16.5368 14.05 16.0089 11.8459 16.6213V16.6213Z" fill="#EB848F"/>
<path d="M12.9489 21.9342C12.5102 22.3729 12.1455 22.862 11.8425 23.3774C14.0476 23.9912 16.1765 23.4628 17.0503 21.2211C15.7086 20.5896 14.0562 20.8271 12.9489 21.9342Z" fill="#EB848F"/>
<path d="M28.1525 23.3778C27.8517 22.8644 27.4884 22.3732 27.0491 21.9339C25.9494 20.8372 24.3126 20.5819 22.9478 21.2208C23.8223 23.4629 25.949 23.99 28.1525 23.3778V23.3778Z" fill="#EB848F"/>
<path d="M24.4917 19.1235C25.4584 19.1235 26.3667 18.7475 27.0493 18.0648C27.4879 17.6262 27.8525 17.1372 28.1555 16.622C25.9498 16.008 23.8206 16.5372 22.9475 18.7798C23.4241 19.0048 23.9487 19.1235 24.4917 19.1235Z" fill="#EB848F"/>
<path d="M19.9993 12.9323C20.2231 12.5402 20.5001 12.1735 20.8291 11.8445C21.6321 11.0415 22.4072 10.6037 22.8245 10.3591C22.1244 8.84636 21.1046 7.6021 20.3787 6.83064C20.1729 6.61179 19.8257 6.61179 19.6199 6.83064C18.8946 7.60163 17.8756 8.84479 17.1755 10.3562C17.5924 10.6012 18.3626 11.0375 19.1694 11.8443C19.4984 12.1734 19.7754 12.5401 19.9993 12.9323V12.9323Z" fill="#EB848F"/>
<path d="M19.9993 27.0674C19.7754 27.4596 19.4984 27.8263 19.1694 28.1554C18.3626 28.9622 17.5924 29.3985 17.1755 29.6435C17.8756 31.155 18.8946 32.3981 19.6199 33.1691C19.8258 33.3879 20.1729 33.3879 20.3787 33.1691C21.1045 32.3976 22.1243 31.1534 22.8245 29.6406C22.4072 29.3961 21.6322 28.9582 20.8291 28.1552C20.5001 27.8262 20.2231 27.4595 19.9993 27.0674V27.0674Z" fill="#EB848F"/>
<path d="M25.1794 13.6459C25.1793 14.1112 25.1159 14.5665 24.9969 15.0021C25.4324 14.8831 25.8876 14.8196 26.3528 14.8196C27.4885 14.8196 28.3461 15.0581 28.8142 15.1802C29.3887 13.6155 29.5474 12.0145 29.5798 10.9558C29.5889 10.6555 29.3435 10.41 29.0432 10.4192C27.9851 10.4515 26.3856 10.61 24.8218 11.1837C24.9432 11.6518 25.1794 12.5049 25.1794 13.6459V13.6459Z" fill="#EB848F"/>
<path d="M14.8193 26.3523C14.8193 25.887 14.8828 25.4319 15.0018 24.9964C14.5662 25.1154 14.111 25.1788 13.6456 25.1789C12.5046 25.1789 11.6515 24.9427 11.1835 24.8213C10.6098 26.3851 10.4512 27.9846 10.4189 29.0427C10.4098 29.343 10.6553 29.5885 10.9556 29.5793C12.0143 29.547 13.6152 29.3883 15.18 28.8137C15.0578 28.3456 14.8193 27.488 14.8193 26.3523V26.3523Z" fill="#EB848F"/>
<path d="M33.1693 19.6196C32.3983 18.8943 31.1552 17.8754 29.6438 17.1753C29.3987 17.5921 28.9624 18.3624 28.1556 19.1691C27.8265 19.4982 27.4598 19.7752 27.0676 19.999C27.4597 20.2229 27.8264 20.4998 28.1554 20.8288C28.9584 21.6319 29.3963 22.4069 29.6408 22.8243C31.1536 22.1241 32.3979 21.1043 33.1693 20.3785C33.3881 20.1727 33.3881 19.8255 33.1693 19.6196V19.6196Z" fill="#EB848F"/>
<path d="M12.9326 19.999C12.5404 19.7752 12.1737 19.4981 11.8446 19.1691C11.0378 18.3624 10.6015 17.5921 10.3564 17.1753C8.84499 17.8754 7.60187 18.8943 6.83089 19.6197C6.61203 19.8255 6.61203 20.1727 6.83089 20.3785C7.60239 21.1043 8.84661 22.1241 10.3594 22.8243C10.6039 22.407 11.0418 21.6319 11.8448 20.8288C12.1738 20.4999 12.5404 20.2229 12.9326 19.999V19.999Z" fill="#EB848F"/>
<path d="M26.3539 25.1789C25.8886 25.1788 25.4334 25.1154 24.9978 24.9964C25.1167 25.4319 25.1802 25.8871 25.1803 26.3523C25.1802 27.488 24.9418 28.3457 24.8196 28.8137C26.3844 29.3883 27.9852 29.547 29.044 29.5793C29.3443 29.5885 29.5898 29.343 29.5806 29.0427C29.5483 27.9846 29.3898 26.3851 28.8161 24.8213C28.3481 24.9427 27.4949 25.1789 26.3539 25.1789V25.1789Z" fill="#EB848F"/>
<path d="M13.6469 14.8195C14.1122 14.8196 14.5673 14.883 15.0028 15.002C14.8838 14.5664 14.8204 14.1112 14.8203 13.6459C14.8203 12.5049 15.0565 11.6517 15.1779 11.1837C13.6141 10.61 12.0146 10.4515 10.9565 10.4192C10.6562 10.41 10.4108 10.6555 10.4199 10.9558C10.4522 12.0146 10.611 13.6155 11.1855 15.1802C11.6536 15.058 12.5112 14.8196 13.6469 14.8195V14.8195Z" fill="#EB848F"/>
</svg>
