<svg width="17" height="31" viewBox="0 0 17 31" fill="none" xmlns="http://www.w3.org/2000/svg">
<path d="M8.5 0.75C3.8125 0.75 0.0625 4.55859 0.0625 9.1875C0.0625 13.582 3.34375 17.0977 7.5625 17.5664V29.6367L8.20703 30.6328C8.32422 30.8086 8.61719 30.8086 8.73438 30.6328L9.4375 29.6367V17.5664C13.5977 17.0977 16.9375 13.582 16.9375 9.1875C16.9375 4.55859 13.1289 0.75 8.5 0.75ZM8.5 15.75C4.86719 15.75 1.9375 12.8203 1.9375 9.1875C1.9375 5.61328 4.86719 2.625 8.5 2.625C12.0742 2.625 15.0625 5.61328 15.0625 9.1875C15.0625 12.8203 12.0742 15.75 8.5 15.75ZM8.5 4.5C5.86328 4.5 3.8125 6.60938 3.8125 9.1875C3.8125 9.71484 4.22266 10.125 4.75 10.125C5.21875 10.125 5.6875 9.71484 5.6875 9.1875C5.6875 7.66406 6.91797 6.375 8.5 6.375C8.96875 6.375 9.4375 5.96484 9.4375 5.4375C9.4375 4.96875 8.96875 4.5 8.5 4.5Z" fill="white"/>
</svg>
