<svg width="271" height="205" viewBox="0 0 271 205" fill="none" xmlns="http://www.w3.org/2000/svg">
<g filter="url(#filter0_d_404_3)">
<rect x="45" y="30" width="186" height="125" fill="white"/>
</g>
<path d="M86.7011 63.12C86.0611 63.12 85.3011 63.09 84.4211 63.03C84.1011 63.01 83.7011 62.99 83.2211 62.97C82.7611 62.95 82.2411 62.94 81.6611 62.94L79.4411 62.97C79.0411 62.99 78.5011 63 77.8211 63C77.7811 63 77.7611 62.94 77.7611 62.82C77.7611 62.7 77.7811 62.64 77.8211 62.64C78.4611 62.64 78.9311 62.59 79.2311 62.49C79.5311 62.39 79.7311 62.2 79.8311 61.92C79.9511 61.62 80.0111 61.17 80.0111 60.57V46.68C80.0111 46.08 79.9511 45.64 79.8311 45.36C79.7311 45.08 79.5311 44.89 79.2311 44.79C78.9511 44.67 78.5011 44.61 77.8811 44.61C77.8211 44.61 77.7911 44.55 77.7911 44.43C77.7911 44.31 77.8211 44.25 77.8811 44.25L79.4711 44.28C80.3911 44.32 81.1211 44.34 81.6611 44.34C82.4811 44.34 83.3211 44.31 84.1811 44.25C85.2211 44.21 85.9211 44.19 86.2811 44.19C88.3011 44.19 90.0911 44.59 91.6511 45.39C93.2311 46.19 94.4511 47.28 95.3111 48.66C96.1711 50.04 96.6011 51.59 96.6011 53.31C96.6011 55.25 96.1511 56.97 95.2511 58.47C94.3711 59.95 93.1711 61.1 91.6511 61.92C90.1511 62.72 88.5011 63.12 86.7011 63.12ZM86.4011 62.43C87.6811 62.43 88.8111 62.11 89.7911 61.47C90.7711 60.81 91.5311 59.84 92.0711 58.56C92.6311 57.28 92.9111 55.75 92.9111 53.97C92.9111 52.27 92.6511 50.73 92.1311 49.35C91.6111 47.95 90.8711 46.85 89.9111 46.05C88.9511 45.25 87.8411 44.85 86.5811 44.85C85.3411 44.85 84.4911 44.97 84.0311 45.21C83.5711 45.45 83.3411 45.96 83.3411 46.74V60.24C83.3411 61.04 83.5511 61.61 83.9711 61.95C84.3911 62.27 85.2011 62.43 86.4011 62.43ZM110.138 61.02C110.178 61.02 110.218 61.06 110.258 61.14C110.318 61.22 110.328 61.28 110.288 61.32C109.548 62.04 108.798 62.56 108.038 62.88C107.278 63.2 106.448 63.36 105.548 63.36C104.288 63.36 103.198 63.1 102.278 62.58C101.358 62.04 100.658 61.33 100.178 60.45C99.6977 59.55 99.4577 58.58 99.4577 57.54C99.4577 56.38 99.7477 55.31 100.328 54.33C100.908 53.35 101.708 52.58 102.728 52.02C103.768 51.44 104.938 51.15 106.238 51.15C107.478 51.15 108.438 51.43 109.118 51.99C109.798 52.55 110.138 53.42 110.138 54.6C110.138 55.22 110.028 55.53 109.808 55.53L102.518 55.56C102.498 55.7 102.488 55.93 102.488 56.25C102.488 58.01 102.888 59.39 103.688 60.39C104.508 61.39 105.678 61.89 107.198 61.89C107.738 61.89 108.198 61.83 108.578 61.71C108.958 61.59 109.458 61.37 110.078 61.05L110.138 61.02ZM105.098 51.75C104.438 51.75 103.888 52.04 103.448 52.62C103.008 53.18 102.718 53.96 102.578 54.96L106.928 54.9C106.908 53.88 106.758 53.1 106.478 52.56C106.198 52.02 105.738 51.75 105.098 51.75ZM125.257 51.42C125.297 51.42 125.317 51.48 125.317 51.6C125.317 51.72 125.297 51.78 125.257 51.78C124.677 51.78 124.157 52 123.697 52.44C123.257 52.88 122.837 53.56 122.437 54.48L118.747 63C118.727 63.1 118.617 63.15 118.417 63.15C118.257 63.15 118.147 63.1 118.087 63L113.497 53.91C113.077 53.03 112.707 52.46 112.387 52.2C112.067 51.92 111.677 51.78 111.217 51.78C111.157 51.78 111.127 51.72 111.127 51.6C111.127 51.48 111.157 51.42 111.217 51.42C111.577 51.42 111.877 51.43 112.117 51.45L114.127 51.48L116.437 51.45C116.777 51.43 117.247 51.42 117.847 51.42C117.907 51.42 117.937 51.48 117.937 51.6C117.937 51.72 117.907 51.78 117.847 51.78C116.687 51.78 116.107 52.01 116.107 52.47C116.107 52.59 116.157 52.75 116.257 52.95L119.617 59.25L121.597 54.45C121.757 54.03 121.837 53.67 121.837 53.37C121.837 52.87 121.667 52.48 121.327 52.2C120.987 51.92 120.517 51.78 119.917 51.78C119.877 51.78 119.857 51.72 119.857 51.6C119.857 51.48 119.877 51.42 119.917 51.42C120.457 51.42 120.867 51.43 121.147 51.45L122.947 51.48L124.147 51.45C124.387 51.43 124.757 51.42 125.257 51.42ZM131.458 48.78C131.458 48.82 131.418 48.84 131.338 48.84C131.278 48.84 131.218 48.83 131.158 48.81C131.118 48.77 131.108 48.74 131.128 48.72L132.118 41.52C132.158 41.44 132.488 41.35 133.108 41.25C133.728 41.13 134.248 41.07 134.668 41.07C134.948 41.07 135.078 41.11 135.058 41.19L131.458 48.78ZM137.668 61.38C137.748 61.38 137.798 61.43 137.818 61.53C137.858 61.61 137.838 61.67 137.758 61.71L134.668 63.18C134.588 63.22 134.488 63.24 134.368 63.24C134.048 63.24 133.738 63.07 133.438 62.73C133.158 62.39 132.958 61.93 132.838 61.35L131.548 62.25C131.088 62.59 130.658 62.84 130.258 63C129.858 63.14 129.408 63.21 128.908 63.21C128.048 63.21 127.398 63.02 126.958 62.64C126.518 62.26 126.298 61.73 126.298 61.05C126.298 60.51 126.428 60.08 126.688 59.76C126.948 59.42 127.268 59.16 127.648 58.98C128.048 58.78 128.598 58.56 129.298 58.32L130.048 58.05L132.748 57.06V55.35C132.748 54.07 132.638 53.14 132.418 52.56C132.218 51.98 131.868 51.69 131.368 51.69C130.308 51.69 129.708 52.51 129.568 54.15C129.508 54.75 129.328 55.18 129.028 55.44C128.748 55.7 128.348 55.83 127.828 55.83C127.328 55.83 126.958 55.73 126.718 55.53C126.498 55.31 126.388 55.03 126.388 54.69C126.388 54.09 126.738 53.52 127.438 52.98C128.138 52.42 128.978 51.97 129.958 51.63C130.958 51.29 131.838 51.12 132.598 51.12C133.478 51.12 134.188 51.4 134.728 51.96C135.288 52.5 135.568 53.33 135.568 54.45V59.76C135.568 60.34 135.668 60.79 135.868 61.11C136.088 61.43 136.388 61.59 136.768 61.59C137.048 61.59 137.338 61.52 137.638 61.38H137.668ZM132.778 60.84C132.758 60.76 132.748 60.63 132.748 60.45V57.57L131.458 58.17C131.398 58.19 131.198 58.27 130.858 58.41C130.518 58.53 130.218 58.74 129.958 59.04C129.718 59.34 129.598 59.69 129.598 60.09C129.598 60.57 129.748 60.95 130.048 61.23C130.368 61.49 130.728 61.62 131.128 61.62C131.448 61.62 131.778 61.51 132.118 61.29L132.778 60.84ZM164.706 44.25C164.746 44.25 164.766 44.31 164.766 44.43C164.766 44.55 164.746 44.61 164.706 44.61C164.086 44.61 163.326 45 162.426 45.78C161.526 46.54 160.726 47.5 160.026 48.66L156.906 53.88V60.57C156.906 61.19 156.956 61.64 157.056 61.92C157.156 62.2 157.346 62.39 157.626 62.49C157.926 62.59 158.396 62.64 159.036 62.64C159.096 62.64 159.126 62.7 159.126 62.82C159.126 62.94 159.096 63 159.036 63C158.376 63 157.856 62.99 157.476 62.97L155.226 62.94L153.006 62.97C152.606 62.99 152.066 63 151.386 63C151.346 63 151.326 62.94 151.326 62.82C151.326 62.7 151.346 62.64 151.386 62.64C152.026 62.64 152.496 62.59 152.796 62.49C153.096 62.39 153.296 62.2 153.396 61.92C153.516 61.62 153.576 61.17 153.576 60.57V54.51L149.196 47.7C148.456 46.54 147.836 45.74 147.336 45.3C146.856 44.84 146.446 44.61 146.106 44.61C146.046 44.61 146.016 44.55 146.016 44.43C146.016 44.31 146.046 44.25 146.106 44.25L147.036 44.28C147.476 44.32 147.786 44.34 147.966 44.34C148.666 44.34 149.676 44.32 150.996 44.28L152.976 44.25C153.016 44.25 153.036 44.31 153.036 44.43C153.036 44.55 153.016 44.61 152.976 44.61C152.636 44.61 152.366 44.69 152.166 44.85C151.986 45.01 151.896 45.22 151.896 45.48C151.896 45.8 152.036 46.18 152.316 46.62L156.426 53.1L159.186 48.39C159.726 47.49 159.996 46.72 159.996 46.08C159.996 45.6 159.846 45.24 159.546 45C159.266 44.74 158.856 44.61 158.316 44.61C158.256 44.61 158.226 44.55 158.226 44.43C158.226 44.31 158.256 44.25 158.316 44.25L159.906 44.28C160.826 44.32 161.646 44.34 162.366 44.34C162.706 44.34 163.116 44.32 163.596 44.28L164.706 44.25ZM168.901 63.39C167.661 63.39 166.571 63.11 165.631 62.55C164.711 61.97 164.001 61.2 163.501 60.24C163.001 59.26 162.751 58.2 162.751 57.06C162.751 55.76 163.081 54.66 163.741 53.76C164.401 52.84 165.241 52.16 166.261 51.72C167.281 51.26 168.331 51.03 169.411 51.03C170.651 51.03 171.731 51.32 172.651 51.9C173.571 52.48 174.271 53.25 174.751 54.21C175.251 55.15 175.501 56.16 175.501 57.24C175.501 58.44 175.201 59.51 174.601 60.45C174.001 61.37 173.191 62.09 172.171 62.61C171.171 63.13 170.081 63.39 168.901 63.39ZM169.801 62.76C170.581 62.76 171.171 62.38 171.571 61.62C171.991 60.84 172.201 59.73 172.201 58.29C172.201 56.89 172.021 55.69 171.661 54.69C171.301 53.69 170.831 52.94 170.251 52.44C169.671 51.92 169.051 51.66 168.391 51.66C166.791 51.66 165.991 53.09 165.991 55.95C165.991 57.29 166.161 58.48 166.501 59.52C166.841 60.54 167.301 61.34 167.881 61.92C168.461 62.48 169.101 62.76 169.801 62.76ZM184.568 61.77C185.748 61.79 186.708 61.86 187.448 61.98C188.208 62.1 188.838 62.4 189.338 62.88C189.858 63.34 190.118 64.05 190.118 65.01C190.118 66.13 189.768 67.18 189.068 68.16C188.388 69.16 187.458 69.96 186.278 70.56C185.118 71.16 183.868 71.46 182.528 71.46C181.148 71.46 180.018 71.14 179.138 70.5C178.258 69.88 177.818 69.06 177.818 68.04C177.818 66.64 178.828 65.28 180.848 63.96C179.408 63.68 178.688 62.96 178.688 61.8C178.688 60.56 179.388 59.47 180.788 58.53C180.028 58.17 179.428 57.67 178.988 57.03C178.568 56.37 178.358 55.68 178.358 54.96C178.358 54.16 178.618 53.48 179.138 52.92C179.658 52.36 180.318 51.94 181.118 51.66C181.938 51.36 182.768 51.21 183.608 51.21C184.868 51.21 185.948 51.53 186.848 52.17C187.888 51.47 188.968 51.12 190.088 51.12C190.248 51.12 190.328 51.4 190.328 51.96C190.328 52.26 190.288 52.58 190.208 52.92C190.128 53.24 190.048 53.37 189.968 53.31C189.148 52.97 188.408 52.8 187.748 52.8H187.508C188.048 53.44 188.318 54.16 188.318 54.96C188.318 55.76 188.058 56.47 187.538 57.09C187.018 57.71 186.348 58.19 185.528 58.53C184.728 58.85 183.898 59.01 183.038 59.01C182.418 59.01 181.848 58.92 181.328 58.74C181.008 59.08 180.848 59.51 180.848 60.03C180.848 60.57 180.988 60.96 181.268 61.2C181.568 61.44 181.958 61.59 182.438 61.65C182.918 61.71 183.628 61.75 184.568 61.77ZM182.618 51.78C181.718 51.78 181.268 52.54 181.268 54.06C181.268 54.9 181.388 55.66 181.628 56.34C181.868 57 182.178 57.52 182.558 57.9C182.958 58.28 183.378 58.47 183.818 58.47C184.258 58.47 184.628 58.25 184.928 57.81C185.228 57.37 185.378 56.7 185.378 55.8C185.378 54.94 185.238 54.21 184.958 53.61C184.678 52.99 184.318 52.53 183.878 52.23C183.458 51.93 183.038 51.78 182.618 51.78ZM184.328 70.5C185.348 70.5 186.158 70.18 186.758 69.54C187.358 68.9 187.658 68.03 187.658 66.93C187.658 66.07 187.468 65.44 187.088 65.04C186.728 64.66 186.248 64.42 185.648 64.32C185.068 64.24 184.218 64.19 183.098 64.17C182.918 64.17 182.668 64.16 182.348 64.14C182.028 64.12 181.758 64.1 181.538 64.08C180.858 64.58 180.518 65.38 180.518 66.48C180.518 67.76 180.888 68.75 181.628 69.45C182.388 70.15 183.288 70.5 184.328 70.5ZM203.422 61.38C203.502 61.38 203.552 61.43 203.572 61.53C203.612 61.61 203.592 61.67 203.512 61.71L200.422 63.18C200.342 63.22 200.242 63.24 200.122 63.24C199.802 63.24 199.492 63.07 199.192 62.73C198.912 62.39 198.712 61.93 198.592 61.35L197.302 62.25C196.842 62.59 196.412 62.84 196.012 63C195.612 63.14 195.162 63.21 194.662 63.21C193.802 63.21 193.152 63.02 192.712 62.64C192.272 62.26 192.052 61.73 192.052 61.05C192.052 60.51 192.182 60.08 192.442 59.76C192.702 59.42 193.022 59.16 193.402 58.98C193.802 58.78 194.352 58.56 195.052 58.32L195.802 58.05L198.502 57.06V55.35C198.502 54.07 198.392 53.14 198.172 52.56C197.972 51.98 197.622 51.69 197.122 51.69C196.062 51.69 195.462 52.51 195.322 54.15C195.262 54.75 195.082 55.18 194.782 55.44C194.502 55.7 194.102 55.83 193.582 55.83C193.082 55.83 192.712 55.73 192.472 55.53C192.252 55.31 192.142 55.03 192.142 54.69C192.142 54.09 192.492 53.52 193.192 52.98C193.892 52.42 194.732 51.97 195.712 51.63C196.712 51.29 197.592 51.12 198.352 51.12C199.232 51.12 199.942 51.4 200.482 51.96C201.042 52.5 201.322 53.33 201.322 54.45V59.76C201.322 60.34 201.422 60.79 201.622 61.11C201.842 61.43 202.142 61.59 202.522 61.59C202.802 61.59 203.092 61.52 203.392 61.38H203.422ZM198.532 60.84C198.512 60.76 198.502 60.63 198.502 60.45V57.57L197.212 58.17C197.152 58.19 196.952 58.27 196.612 58.41C196.272 58.53 195.972 58.74 195.712 59.04C195.472 59.34 195.352 59.69 195.352 60.09C195.352 60.57 195.502 60.95 195.802 61.23C196.122 61.49 196.482 61.62 196.882 61.62C197.202 61.62 197.532 61.51 197.872 61.29L198.532 60.84ZM104.962 75.28C104.962 76 105.142 76.64 105.502 77.2C105.882 77.76 106.342 78.25 106.882 78.67C107.422 79.09 108.152 79.6 109.072 80.2C110.072 80.84 110.872 81.4 111.472 81.88C112.072 82.36 112.582 82.95 113.002 83.65C113.422 84.33 113.632 85.12 113.632 86.02C113.632 87.06 113.352 87.99 112.792 88.81C112.232 89.61 111.452 90.24 110.452 90.7C109.472 91.14 108.372 91.36 107.152 91.36C106.252 91.36 105.312 91.24 104.332 91C103.352 90.74 102.692 90.46 102.352 90.16C102.252 90.08 102.172 90.01 102.112 89.95C102.072 89.87 102.052 89.75 102.052 89.59L101.962 84.82V84.79C101.962 84.71 102.012 84.67 102.112 84.67C102.212 84.65 102.272 84.68 102.292 84.76C102.892 85.98 103.412 86.97 103.852 87.73C104.312 88.49 104.882 89.16 105.562 89.74C106.262 90.32 107.052 90.61 107.932 90.61C108.732 90.61 109.392 90.4 109.912 89.98C110.432 89.54 110.692 88.8 110.692 87.76C110.692 86.88 110.492 86.11 110.092 85.45C109.712 84.79 109.242 84.23 108.682 83.77C108.122 83.31 107.352 82.76 106.372 82.12C105.412 81.5 104.662 80.97 104.122 80.53C103.602 80.09 103.152 79.56 102.772 78.94C102.392 78.32 102.202 77.59 102.202 76.75C102.202 75.69 102.502 74.8 103.102 74.08C103.722 73.34 104.512 72.8 105.472 72.46C106.432 72.1 107.442 71.92 108.502 71.92C109.202 71.92 109.912 71.99 110.632 72.13C111.352 72.25 111.932 72.4 112.372 72.58C112.552 72.66 112.672 72.75 112.732 72.85C112.792 72.93 112.822 73.04 112.822 73.18V77.59C112.822 77.65 112.772 77.7 112.672 77.74C112.572 77.76 112.512 77.74 112.492 77.68L112.252 77.11C111.752 75.85 111.162 74.78 110.482 73.9C109.822 73.02 108.892 72.58 107.692 72.58C106.892 72.58 106.232 72.81 105.712 73.27C105.212 73.73 104.962 74.4 104.962 75.28ZM125.502 88.9C125.582 88.9 125.642 88.94 125.682 89.02C125.742 89.1 125.742 89.16 125.682 89.2C124.942 89.94 124.222 90.49 123.522 90.85C122.822 91.19 122.082 91.36 121.302 91.36C120.422 91.36 119.672 91.15 119.052 90.73C118.432 90.31 118.122 89.6 118.122 88.6V81.94C118.122 81.32 118.012 80.89 117.792 80.65C117.572 80.41 117.172 80.29 116.592 80.29C116.572 80.29 116.542 80.26 116.502 80.2C116.482 80.14 116.472 80.08 116.472 80.02C116.472 79.94 116.482 79.88 116.502 79.84C116.522 79.78 116.552 79.75 116.592 79.75C117.612 79.71 118.432 79.49 119.052 79.09C119.692 78.69 120.182 78.08 120.522 77.26C120.562 77.18 120.642 77.14 120.762 77.14C120.902 77.14 120.972 77.18 120.972 77.26V79.66C122.132 79.64 123.432 79.55 124.872 79.39C124.912 79.39 124.952 79.47 124.992 79.63C125.052 79.77 125.082 79.93 125.082 80.11C125.082 80.31 125.042 80.51 124.962 80.71C124.902 80.89 124.832 80.97 124.752 80.95C123.452 80.67 122.192 80.52 120.972 80.5V87.61C120.972 88.37 121.162 88.93 121.542 89.29C121.942 89.65 122.462 89.83 123.102 89.83C123.902 89.83 124.682 89.53 125.442 88.93L125.502 88.9ZM141.43 89.05C141.49 89.05 141.54 89.1 141.58 89.2C141.64 89.3 141.64 89.36 141.58 89.38L137.44 91.39C137.4 91.41 137.35 91.42 137.29 91.42C137.09 91.42 136.91 91.21 136.75 90.79C136.61 90.35 136.53 89.76 136.51 89.02C135.19 90.58 133.76 91.36 132.22 91.36C131.12 91.36 130.25 91.02 129.61 90.34C128.99 89.64 128.68 88.73 128.68 87.61V83.2C128.68 81.9 128.37 81.25 127.75 81.25C127.53 81.25 127.28 81.32 127 81.46H126.97C126.89 81.46 126.83 81.41 126.79 81.31C126.75 81.19 126.76 81.12 126.82 81.1L130.84 79.18L130.99 79.15C131.09 79.15 131.19 79.2 131.29 79.3C131.41 79.38 131.47 79.46 131.47 79.54V86.17C131.47 88.33 132.3 89.41 133.96 89.41C134.4 89.41 134.84 89.32 135.28 89.14C135.74 88.94 136.15 88.67 136.51 88.33V83.2C136.51 81.9 136.2 81.25 135.58 81.25C135.36 81.25 135.1 81.32 134.8 81.46H134.77C134.71 81.46 134.66 81.41 134.62 81.31C134.58 81.19 134.59 81.12 134.65 81.1L138.67 79.18C138.71 79.16 138.76 79.15 138.82 79.15C138.92 79.15 139.02 79.2 139.12 79.3C139.24 79.38 139.3 79.46 139.3 79.54V87.52C139.3 88.2 139.36 88.68 139.48 88.96C139.62 89.24 139.84 89.38 140.14 89.38C140.42 89.38 140.83 89.27 141.37 89.05H141.43ZM157.296 89.05C157.356 89.05 157.406 89.1 157.446 89.2C157.506 89.3 157.516 89.36 157.476 89.38L153.336 91.39L153.186 91.42C153.006 91.42 152.836 91.23 152.676 90.85C152.536 90.47 152.446 89.95 152.406 89.29C150.926 90.69 149.416 91.39 147.876 91.39C146.996 91.39 146.196 91.16 145.476 90.7C144.776 90.24 144.216 89.57 143.796 88.69C143.376 87.79 143.166 86.74 143.166 85.54C143.166 84.02 143.516 82.78 144.216 81.82C144.936 80.84 145.816 80.13 146.856 79.69C147.916 79.25 148.976 79.03 150.036 79.03C150.776 79.03 151.556 79.15 152.376 79.39V73.33C152.376 72.63 152.306 72.13 152.166 71.83C152.046 71.53 151.826 71.38 151.506 71.38C151.246 71.38 150.876 71.49 150.396 71.71H150.366C150.286 71.71 150.216 71.66 150.156 71.56C150.116 71.44 150.116 71.37 150.156 71.35L154.566 69.28L154.686 69.25C154.786 69.25 154.896 69.3 155.016 69.4C155.136 69.48 155.196 69.56 155.196 69.64V87.52C155.196 88.2 155.256 88.68 155.376 88.96C155.516 89.24 155.736 89.38 156.036 89.38C156.296 89.38 156.706 89.27 157.266 89.05H157.296ZM149.526 89.95C150.526 89.95 151.476 89.53 152.376 88.69V88.54V81.25C152.016 80.75 151.606 80.39 151.146 80.17C150.706 79.93 150.186 79.81 149.586 79.81C148.506 79.81 147.676 80.19 147.096 80.95C146.536 81.69 146.256 82.9 146.256 84.58C146.256 86.26 146.556 87.58 147.156 88.54C147.756 89.48 148.546 89.95 149.526 89.95ZM162.149 76.15C161.569 76.15 161.119 75.99 160.799 75.67C160.479 75.35 160.319 74.9 160.319 74.32C160.319 73.8 160.479 73.39 160.799 73.09C161.139 72.77 161.589 72.61 162.149 72.61C162.709 72.61 163.139 72.76 163.439 73.06C163.739 73.36 163.889 73.78 163.889 74.32C163.889 74.9 163.739 75.35 163.439 75.67C163.139 75.99 162.709 76.15 162.149 76.15ZM159.269 91C159.209 91 159.179 90.94 159.179 90.82C159.179 90.7 159.209 90.64 159.269 90.64C159.889 90.64 160.309 90.5 160.529 90.22C160.749 89.92 160.859 89.37 160.859 88.57V83.2C160.859 82.52 160.789 82.03 160.649 81.73C160.509 81.43 160.279 81.28 159.959 81.28C159.699 81.28 159.329 81.39 158.849 81.61H158.819C158.739 81.61 158.679 81.56 158.639 81.46C158.599 81.34 158.609 81.27 158.669 81.25L163.199 79.15L163.289 79.12C163.389 79.12 163.489 79.17 163.589 79.27C163.689 79.37 163.739 79.46 163.739 79.54V80.2C163.699 81 163.679 81.98 163.679 83.14V88.57C163.679 89.37 163.789 89.92 164.009 90.22C164.249 90.5 164.679 90.64 165.299 90.64C165.359 90.64 165.389 90.7 165.389 90.82C165.389 90.94 165.359 91 165.299 91C164.779 91 164.369 90.99 164.069 90.97L162.269 90.94L160.499 90.97C160.199 90.99 159.789 91 159.269 91ZM173.69 91.39C172.45 91.39 171.36 91.11 170.42 90.55C169.5 89.97 168.79 89.2 168.29 88.24C167.79 87.26 167.54 86.2 167.54 85.06C167.54 83.76 167.87 82.66 168.53 81.76C169.19 80.84 170.03 80.16 171.05 79.72C172.07 79.26 173.12 79.03 174.2 79.03C175.44 79.03 176.52 79.32 177.44 79.9C178.36 80.48 179.06 81.25 179.54 82.21C180.04 83.15 180.29 84.16 180.29 85.24C180.29 86.44 179.99 87.51 179.39 88.45C178.79 89.37 177.98 90.09 176.96 90.61C175.96 91.13 174.87 91.39 173.69 91.39ZM174.59 90.76C175.37 90.76 175.96 90.38 176.36 89.62C176.78 88.84 176.99 87.73 176.99 86.29C176.99 84.89 176.81 83.69 176.45 82.69C176.09 81.69 175.62 80.94 175.04 80.44C174.46 79.92 173.84 79.66 173.18 79.66C171.58 79.66 170.78 81.09 170.78 83.95C170.78 85.29 170.95 86.48 171.29 87.52C171.63 88.54 172.09 89.34 172.67 89.92C173.25 90.48 173.89 90.76 174.59 90.76Z" fill="black"/>
<path d="M82.7415 120C82.7055 120 82.6875 119.964 82.6875 119.892C82.6875 119.82 82.7055 119.784 82.7415 119.784C83.1495 119.784 83.4495 119.754 83.6415 119.694C83.8455 119.634 83.9955 119.52 84.0915 119.352C84.1995 119.172 84.2835 118.902 84.3435 118.542L85.8195 110.208C85.8555 109.992 85.8735 109.812 85.8735 109.668C85.8735 109.428 85.8015 109.266 85.6575 109.182C85.5255 109.098 85.2735 109.056 84.9015 109.056H84.4695C83.7615 109.056 83.1975 109.26 82.7775 109.668C82.3695 110.064 82.0335 110.724 81.7695 111.648C81.7695 111.672 81.7455 111.684 81.6975 111.684C81.6615 111.684 81.6255 111.678 81.5895 111.666C81.5535 111.642 81.5415 111.624 81.5535 111.612C81.6495 111.312 81.7875 110.796 81.9675 110.064C82.1475 109.32 82.2735 108.75 82.3455 108.354C82.3575 108.318 82.3995 108.306 82.4715 108.318C82.5435 108.318 82.5735 108.336 82.5615 108.372C82.5255 108.624 82.7595 108.75 83.2635 108.75C84.1515 108.786 85.2495 108.804 86.5575 108.804C87.1695 108.804 87.8475 108.792 88.5915 108.768L89.7255 108.75C90.0855 108.75 90.3555 108.72 90.5355 108.66C90.7155 108.6 90.8415 108.48 90.9135 108.3C90.9375 108.264 90.9795 108.252 91.0395 108.264C91.0995 108.264 91.1235 108.288 91.1115 108.336C91.0155 108.66 90.8835 109.212 90.7155 109.992C90.5475 110.76 90.4395 111.3 90.3915 111.612C90.3795 111.648 90.3375 111.666 90.2655 111.666C90.2055 111.654 90.1815 111.624 90.1935 111.576C90.2535 111.18 90.2835 110.856 90.2835 110.604C90.2835 110.052 90.1455 109.656 89.8695 109.416C89.6055 109.176 89.1675 109.056 88.5555 109.056H88.1235C87.8115 109.056 87.5715 109.092 87.4035 109.164C87.2475 109.224 87.1275 109.338 87.0435 109.506C86.9715 109.662 86.9055 109.908 86.8455 110.244L85.3875 118.542C85.3515 118.758 85.3335 118.944 85.3335 119.1C85.3335 119.376 85.4175 119.562 85.5855 119.658C85.7655 119.742 86.1015 119.784 86.5935 119.784C86.6175 119.784 86.6295 119.82 86.6295 119.892C86.6295 119.964 86.6175 120 86.5935 120C86.2695 120 86.0115 119.994 85.8195 119.982L84.6495 119.964L83.5335 119.982C83.3415 119.994 83.0775 120 82.7415 120ZM93.2308 110.766C92.9908 110.766 92.7988 110.7 92.6548 110.568C92.5228 110.424 92.4568 110.232 92.4568 109.992C92.4568 109.764 92.5228 109.584 92.6548 109.452C92.7988 109.32 92.9908 109.254 93.2308 109.254C93.4708 109.254 93.6568 109.32 93.7888 109.452C93.9208 109.584 93.9868 109.764 93.9868 109.992C93.9868 110.232 93.9208 110.424 93.7888 110.568C93.6568 110.7 93.4708 110.766 93.2308 110.766ZM92.0968 120.162C91.8808 120.162 91.7188 120.102 91.6108 119.982C91.5028 119.85 91.4488 119.64 91.4488 119.352C91.4488 119.172 91.4908 118.854 91.5748 118.398L92.3128 114.654C92.3488 114.474 92.3668 114.312 92.3668 114.168C92.3668 113.784 92.2468 113.592 92.0068 113.592C91.8628 113.592 91.6768 113.664 91.4488 113.808C91.2328 113.952 91.0048 114.156 90.7648 114.42C90.7528 114.432 90.7348 114.438 90.7108 114.438C90.6748 114.438 90.6388 114.42 90.6028 114.384C90.5788 114.336 90.5848 114.3 90.6208 114.276C91.0408 113.796 91.4188 113.448 91.7548 113.232C92.0908 113.004 92.4088 112.89 92.7088 112.89C92.9248 112.89 93.0808 112.956 93.1768 113.088C93.2848 113.208 93.3388 113.412 93.3388 113.7C93.3388 113.928 93.3028 114.234 93.2308 114.618L92.4928 118.398C92.4568 118.59 92.4388 118.752 92.4388 118.884C92.4388 119.256 92.5528 119.442 92.7808 119.442C93.0688 119.442 93.4768 119.178 94.0048 118.65C94.0288 118.626 94.0528 118.614 94.0768 118.614C94.1128 118.614 94.1428 118.638 94.1668 118.686C94.1908 118.722 94.1848 118.758 94.1488 118.794C93.7408 119.262 93.3748 119.61 93.0508 119.838C92.7268 120.054 92.4088 120.162 92.0968 120.162ZM96.4 120.198C95.932 120.198 95.53 120.09 95.194 119.874C94.87 119.658 94.732 119.394 94.78 119.082C94.792 118.926 94.852 118.806 94.96 118.722C95.068 118.626 95.188 118.578 95.32 118.578C95.428 118.578 95.512 118.614 95.572 118.686C95.644 118.758 95.728 118.878 95.824 119.046C95.968 119.286 96.112 119.472 96.256 119.604C96.412 119.736 96.64 119.802 96.94 119.802C97.6 119.802 97.984 119.436 98.092 118.704C98.104 118.644 98.11 118.566 98.11 118.47C98.11 118.122 98.014 117.822 97.822 117.57C97.63 117.318 97.33 117.024 96.922 116.688C96.526 116.364 96.226 116.082 96.022 115.842C95.83 115.59 95.734 115.29 95.734 114.942C95.734 114.882 95.746 114.78 95.77 114.636C95.878 114.096 96.16 113.67 96.616 113.358C97.084 113.034 97.6 112.872 98.164 112.872C98.572 112.872 98.914 112.95 99.19 113.106C99.478 113.262 99.622 113.46 99.622 113.7C99.622 113.88 99.562 114.018 99.442 114.114C99.334 114.21 99.208 114.258 99.064 114.258C98.932 114.258 98.818 114.222 98.722 114.15C98.638 114.078 98.542 113.97 98.434 113.826C98.302 113.634 98.17 113.496 98.038 113.412C97.918 113.316 97.744 113.268 97.516 113.268C97.228 113.268 96.994 113.352 96.814 113.52C96.646 113.676 96.562 113.91 96.562 114.222C96.562 114.546 96.658 114.84 96.85 115.104C97.054 115.356 97.348 115.644 97.732 115.968C98.152 116.34 98.458 116.658 98.65 116.922C98.854 117.174 98.956 117.48 98.956 117.84C98.956 118.224 98.842 118.602 98.614 118.974C98.386 119.334 98.074 119.628 97.678 119.856C97.282 120.084 96.856 120.198 96.4 120.198ZM106.278 112.854C106.314 112.854 106.344 112.878 106.368 112.926C106.404 112.974 106.41 113.01 106.386 113.034L101.328 118.794C101.46 118.746 101.634 118.722 101.85 118.722C102.15 118.722 102.726 118.8 103.578 118.956C104.274 119.076 104.712 119.136 104.892 119.136C105.084 119.136 105.234 119.076 105.342 118.956C105.462 118.836 105.582 118.62 105.702 118.308C105.702 118.296 105.72 118.29 105.756 118.29C105.792 118.29 105.828 118.302 105.864 118.326C105.9 118.338 105.912 118.356 105.9 118.38C105.732 118.896 105.588 119.274 105.468 119.514C105.36 119.742 105.24 119.898 105.108 119.982C104.988 120.054 104.82 120.09 104.604 120.09C104.304 120.09 103.95 120.054 103.542 119.982C103.134 119.91 102.888 119.868 102.804 119.856C102.06 119.7 101.466 119.616 101.022 119.604C100.83 119.604 100.662 119.64 100.518 119.712C100.374 119.784 100.212 119.922 100.032 120.126H100.014C99.9897 120.126 99.9597 120.102 99.9237 120.054C99.8877 120.006 99.8757 119.976 99.8877 119.964L104.964 114.186C104.856 114.246 104.682 114.276 104.442 114.276C104.262 114.276 104.034 114.252 103.758 114.204C103.482 114.156 103.212 114.102 102.948 114.042C102.396 113.91 102.018 113.844 101.814 113.844C101.622 113.844 101.466 113.91 101.346 114.042C101.226 114.174 101.1 114.402 100.968 114.726C100.956 114.762 100.932 114.78 100.896 114.78C100.86 114.78 100.824 114.768 100.788 114.744C100.764 114.708 100.758 114.666 100.77 114.618C100.962 114.054 101.118 113.658 101.238 113.43C101.358 113.202 101.49 113.058 101.634 112.998C101.778 112.926 101.988 112.896 102.264 112.908C102.516 112.92 102.978 112.998 103.65 113.142C104.358 113.286 104.892 113.37 105.252 113.394C105.444 113.394 105.612 113.358 105.756 113.286C105.9 113.214 106.062 113.076 106.242 112.872L106.278 112.854ZM113.563 118.614C113.575 118.602 113.593 118.596 113.617 118.596C113.653 118.596 113.683 118.62 113.707 118.668C113.731 118.704 113.731 118.734 113.707 118.758C113.299 119.226 112.933 119.58 112.609 119.82C112.297 120.048 111.991 120.162 111.691 120.162C111.487 120.162 111.331 120.102 111.223 119.982C111.127 119.85 111.079 119.64 111.079 119.352C111.079 119.112 111.115 118.794 111.187 118.398L111.511 116.526C110.959 117.642 110.335 118.542 109.639 119.226C108.955 119.898 108.295 120.234 107.659 120.234C106.915 120.234 106.543 119.79 106.543 118.902C106.543 118.806 106.555 118.626 106.579 118.362C106.699 117.51 107.017 116.652 107.533 115.788C108.049 114.924 108.655 114.216 109.351 113.664C110.047 113.1 110.701 112.818 111.313 112.818C111.541 112.818 111.763 112.86 111.979 112.944C112.195 113.028 112.369 113.154 112.501 113.322C112.717 113.142 112.861 112.926 112.933 112.674C112.945 112.638 112.987 112.626 113.059 112.638C113.131 112.65 113.161 112.668 113.149 112.692L112.105 118.398C112.069 118.578 112.051 118.74 112.051 118.884C112.051 119.256 112.159 119.442 112.375 119.442C112.639 119.442 113.035 119.166 113.563 118.614ZM108.307 119.352C108.739 119.352 109.195 119.13 109.675 118.686C110.167 118.242 110.605 117.684 110.989 117.012C111.373 116.328 111.631 115.662 111.763 115.014C111.799 114.858 111.811 114.72 111.799 114.6C111.799 114.24 111.703 113.958 111.511 113.754C111.331 113.55 111.055 113.448 110.683 113.448C110.263 113.46 109.831 113.652 109.387 114.024C108.955 114.384 108.577 114.876 108.253 115.5C107.929 116.112 107.713 116.796 107.605 117.552C107.569 117.816 107.551 118.056 107.551 118.272C107.551 118.992 107.803 119.352 108.307 119.352ZM118.441 120C118.417 120 118.405 119.964 118.405 119.892C118.405 119.82 118.417 119.784 118.441 119.784C118.825 119.784 119.113 119.754 119.305 119.694C119.497 119.634 119.641 119.52 119.737 119.352C119.833 119.172 119.911 118.902 119.971 118.542L121.447 110.208C121.483 109.968 121.501 109.782 121.501 109.65C121.501 109.374 121.417 109.194 121.249 109.11C121.093 109.014 120.793 108.966 120.349 108.966C120.325 108.966 120.313 108.93 120.313 108.858C120.313 108.786 120.325 108.75 120.349 108.75L121.105 108.768C121.537 108.792 121.885 108.804 122.149 108.804C122.437 108.804 122.809 108.792 123.265 108.768L124.003 108.75C124.027 108.75 124.039 108.786 124.039 108.858C124.039 108.93 124.027 108.966 124.003 108.966C123.619 108.966 123.331 109.002 123.139 109.074C122.959 109.134 122.821 109.254 122.725 109.434C122.629 109.602 122.545 109.866 122.473 110.226L121.015 118.47C120.979 118.686 120.961 118.866 120.961 119.01C120.961 119.262 121.039 119.436 121.195 119.532C121.351 119.616 121.633 119.658 122.041 119.658H123.859C124.519 119.658 125.065 119.454 125.497 119.046C125.941 118.638 126.307 118.044 126.595 117.264C126.595 117.24 126.619 117.228 126.667 117.228C126.703 117.228 126.739 117.24 126.775 117.264C126.811 117.276 126.823 117.288 126.811 117.3C126.547 118.176 126.355 118.986 126.235 119.73C126.211 119.826 126.175 119.898 126.127 119.946C126.091 119.982 126.031 120 125.947 120H118.441ZM134.516 118.614C134.528 118.602 134.546 118.596 134.57 118.596C134.606 118.596 134.636 118.62 134.66 118.668C134.684 118.704 134.684 118.734 134.66 118.758C134.252 119.226 133.886 119.58 133.562 119.82C133.25 120.048 132.944 120.162 132.644 120.162C132.44 120.162 132.284 120.102 132.176 119.982C132.08 119.85 132.032 119.64 132.032 119.352C132.032 119.112 132.068 118.794 132.14 118.398L132.464 116.526C131.912 117.642 131.288 118.542 130.592 119.226C129.908 119.898 129.248 120.234 128.612 120.234C127.868 120.234 127.496 119.79 127.496 118.902C127.496 118.806 127.508 118.626 127.532 118.362C127.652 117.51 127.97 116.652 128.486 115.788C129.002 114.924 129.608 114.216 130.304 113.664C131 113.1 131.654 112.818 132.266 112.818C132.494 112.818 132.716 112.86 132.932 112.944C133.148 113.028 133.322 113.154 133.454 113.322C133.67 113.142 133.814 112.926 133.886 112.674C133.898 112.638 133.94 112.626 134.012 112.638C134.084 112.65 134.114 112.668 134.102 112.692L133.058 118.398C133.022 118.578 133.004 118.74 133.004 118.884C133.004 119.256 133.112 119.442 133.328 119.442C133.592 119.442 133.988 119.166 134.516 118.614ZM129.26 119.352C129.692 119.352 130.148 119.13 130.628 118.686C131.12 118.242 131.558 117.684 131.942 117.012C132.326 116.328 132.584 115.662 132.716 115.014C132.752 114.858 132.764 114.72 132.752 114.6C132.752 114.24 132.656 113.958 132.464 113.754C132.284 113.55 132.008 113.448 131.636 113.448C131.216 113.46 130.784 113.652 130.34 114.024C129.908 114.384 129.53 114.876 129.206 115.5C128.882 116.112 128.666 116.796 128.558 117.552C128.522 117.816 128.504 118.056 128.504 118.272C128.504 118.992 128.756 119.352 129.26 119.352ZM138.253 110.766C138.013 110.766 137.821 110.7 137.677 110.568C137.545 110.424 137.479 110.232 137.479 109.992C137.479 109.764 137.545 109.584 137.677 109.452C137.821 109.32 138.013 109.254 138.253 109.254C138.493 109.254 138.679 109.32 138.811 109.452C138.943 109.584 139.009 109.764 139.009 109.992C139.009 110.232 138.943 110.424 138.811 110.568C138.679 110.7 138.493 110.766 138.253 110.766ZM134.545 124.95C134.173 124.95 133.891 124.872 133.699 124.716C133.495 124.572 133.405 124.392 133.429 124.176C133.465 123.996 133.537 123.858 133.645 123.762C133.753 123.666 133.885 123.618 134.041 123.618C134.197 123.618 134.305 123.66 134.365 123.744C134.425 123.84 134.485 123.99 134.545 124.194C134.593 124.362 134.647 124.482 134.707 124.554C134.755 124.638 134.833 124.68 134.941 124.68C135.109 124.68 135.253 124.566 135.373 124.338C135.505 124.11 135.631 123.744 135.751 123.24C135.871 122.748 136.009 122.034 136.165 121.098L137.281 114.654C137.317 114.474 137.335 114.312 137.335 114.168C137.335 113.784 137.215 113.592 136.975 113.592C136.843 113.592 136.663 113.664 136.435 113.808C136.219 113.952 135.985 114.156 135.733 114.42C135.721 114.432 135.703 114.438 135.679 114.438C135.643 114.438 135.607 114.42 135.571 114.384C135.547 114.336 135.553 114.3 135.589 114.276C136.009 113.796 136.387 113.448 136.723 113.232C137.059 113.004 137.383 112.89 137.695 112.89C137.899 112.89 138.049 112.956 138.145 113.088C138.241 113.208 138.289 113.406 138.289 113.682C138.289 113.994 138.259 114.306 138.199 114.618L137.155 120.684C136.963 121.812 136.759 122.676 136.543 123.276C136.327 123.888 136.063 124.32 135.751 124.572C135.439 124.824 135.037 124.95 134.545 124.95ZM142.038 120.252C141.33 120.252 140.772 120 140.364 119.496C139.968 118.992 139.77 118.332 139.77 117.516C139.77 117.144 139.8 116.814 139.86 116.526C139.992 115.83 140.244 115.2 140.616 114.636C140.988 114.072 141.438 113.628 141.966 113.304C142.494 112.98 143.052 112.818 143.64 112.818C144.384 112.818 144.96 113.07 145.368 113.574C145.776 114.066 145.98 114.708 145.98 115.5C145.98 115.836 145.944 116.178 145.872 116.526C145.728 117.258 145.458 117.912 145.062 118.488C144.666 119.052 144.198 119.49 143.658 119.802C143.13 120.102 142.59 120.252 142.038 120.252ZM142.668 119.802C143.172 119.802 143.628 119.58 144.036 119.136C144.444 118.692 144.72 118.086 144.864 117.318C144.924 116.934 144.954 116.586 144.954 116.274C144.954 115.446 144.792 114.738 144.468 114.15C144.156 113.55 143.706 113.25 143.118 113.25C142.602 113.25 142.14 113.478 141.732 113.934C141.324 114.378 141.042 114.984 140.886 115.752C140.814 116.112 140.778 116.478 140.778 116.85C140.778 117.654 140.946 118.35 141.282 118.938C141.618 119.514 142.08 119.802 142.668 119.802ZM148.256 120.198C147.788 120.198 147.386 120.09 147.05 119.874C146.726 119.658 146.588 119.394 146.636 119.082C146.648 118.926 146.708 118.806 146.816 118.722C146.924 118.626 147.044 118.578 147.176 118.578C147.284 118.578 147.368 118.614 147.428 118.686C147.5 118.758 147.584 118.878 147.68 119.046C147.824 119.286 147.968 119.472 148.112 119.604C148.268 119.736 148.496 119.802 148.796 119.802C149.456 119.802 149.84 119.436 149.948 118.704C149.96 118.644 149.966 118.566 149.966 118.47C149.966 118.122 149.87 117.822 149.678 117.57C149.486 117.318 149.186 117.024 148.778 116.688C148.382 116.364 148.082 116.082 147.878 115.842C147.686 115.59 147.59 115.29 147.59 114.942C147.59 114.882 147.602 114.78 147.625 114.636C147.734 114.096 148.016 113.67 148.472 113.358C148.94 113.034 149.456 112.872 150.02 112.872C150.428 112.872 150.77 112.95 151.046 113.106C151.334 113.262 151.478 113.46 151.478 113.7C151.478 113.88 151.418 114.018 151.298 114.114C151.19 114.21 151.064 114.258 150.92 114.258C150.788 114.258 150.674 114.222 150.578 114.15C150.494 114.078 150.398 113.97 150.29 113.826C150.158 113.634 150.026 113.496 149.894 113.412C149.774 113.316 149.6 113.268 149.372 113.268C149.084 113.268 148.85 113.352 148.67 113.52C148.502 113.676 148.418 113.91 148.418 114.222C148.418 114.546 148.514 114.84 148.706 115.104C148.91 115.356 149.204 115.644 149.588 115.968C150.008 116.34 150.314 116.658 150.506 116.922C150.71 117.174 150.812 117.48 150.812 117.84C150.812 118.224 150.698 118.602 150.47 118.974C150.242 119.334 149.93 119.628 149.534 119.856C149.138 120.084 148.712 120.198 148.256 120.198ZM163.36 118.65C163.372 118.638 163.39 118.632 163.414 118.632C163.462 118.632 163.498 118.656 163.522 118.704C163.546 118.74 163.546 118.77 163.522 118.794C162.718 119.706 162.082 120.162 161.614 120.162C161.338 120.162 161.098 120.078 160.894 119.91C160.702 119.742 160.468 119.424 160.192 118.956L159.148 117.138C159.04 116.958 158.944 116.832 158.86 116.76C158.776 116.688 158.668 116.652 158.536 116.652L158.374 116.67L157.798 119.874C157.774 119.958 157.708 120.024 157.6 120.072C157.504 120.12 157.372 120.144 157.204 120.144C156.928 120.144 156.79 120.108 156.79 120.036L156.862 119.622C156.934 119.334 157 119.016 157.06 118.668L158.896 108.858C158.92 108.666 158.932 108.54 158.932 108.48C158.932 108.168 158.8 108.012 158.536 108.012C158.344 108.012 158.056 108.102 157.672 108.282H157.636C157.588 108.282 157.558 108.258 157.546 108.21C157.534 108.15 157.546 108.108 157.582 108.084L159.904 106.95H159.94C159.988 106.95 160.03 106.968 160.066 107.004C160.114 107.04 160.132 107.07 160.12 107.094L158.77 114.456C159.226 113.952 159.724 113.556 160.264 113.268C160.816 112.968 161.374 112.818 161.938 112.818C162.286 112.818 162.538 112.908 162.694 113.088C162.85 113.256 162.928 113.454 162.928 113.682C162.928 113.79 162.922 113.862 162.91 113.898C162.826 114.33 162.508 114.756 161.956 115.176C161.416 115.584 160.696 115.944 159.796 116.256L161.002 118.344C161.242 118.752 161.446 119.028 161.614 119.172C161.794 119.316 161.98 119.388 162.172 119.388C162.484 119.388 162.88 119.142 163.36 118.65ZM161.146 113.358C160.534 113.358 159.976 113.622 159.472 114.15C158.98 114.678 158.638 115.386 158.446 116.274L158.428 116.418C159.508 116.166 160.288 115.878 160.768 115.554C161.26 115.23 161.554 114.786 161.65 114.222C161.674 114.102 161.686 114.018 161.686 113.97C161.686 113.778 161.638 113.628 161.542 113.52C161.446 113.412 161.314 113.358 161.146 113.358ZM168.796 112.89C169.024 112.89 169.246 112.974 169.462 113.142C169.678 113.31 169.786 113.508 169.786 113.736C169.786 113.916 169.726 114.066 169.606 114.186C169.498 114.306 169.36 114.366 169.192 114.366C169.06 114.366 168.952 114.336 168.868 114.276C168.796 114.216 168.718 114.126 168.634 114.006C168.586 113.946 168.532 113.892 168.472 113.844C168.412 113.784 168.346 113.754 168.274 113.754C168.01 113.754 167.692 114.102 167.32 114.798C166.96 115.494 166.618 116.328 166.294 117.3C165.97 118.272 165.736 119.13 165.592 119.874C165.58 119.958 165.52 120.024 165.412 120.072C165.316 120.12 165.184 120.144 165.016 120.144C164.86 120.144 164.752 120.132 164.692 120.108C164.644 120.096 164.62 120.072 164.62 120.036L164.71 119.622L164.89 118.668L165.484 115.338C165.556 114.942 165.592 114.63 165.592 114.402C165.592 113.862 165.448 113.592 165.16 113.592C164.896 113.592 164.53 113.814 164.062 114.258L164.026 114.276C163.99 114.276 163.96 114.258 163.936 114.222C163.912 114.174 163.906 114.138 163.918 114.114C164.29 113.706 164.632 113.4 164.944 113.196C165.256 112.992 165.562 112.89 165.862 112.89C166.102 112.89 166.276 112.968 166.384 113.124C166.504 113.28 166.564 113.55 166.564 113.934C166.564 114.234 166.516 114.69 166.42 115.302L166.042 117.354C166.45 116.094 166.894 115.038 167.374 114.186C167.866 113.322 168.34 112.89 168.796 112.89ZM175.777 113.07C175.885 113.07 175.927 113.124 175.903 113.232C175.867 113.364 175.771 113.508 175.615 113.664C175.471 113.82 175.339 113.892 175.219 113.88C174.391 113.748 173.503 113.676 172.555 113.664L171.763 118.128C171.727 118.32 171.709 118.494 171.709 118.65C171.709 118.95 171.781 119.172 171.925 119.316C172.069 119.46 172.291 119.532 172.591 119.532C172.879 119.532 173.137 119.478 173.365 119.37C173.605 119.25 173.875 119.082 174.175 118.866H174.193C174.229 118.866 174.265 118.884 174.301 118.92C174.349 118.956 174.361 118.986 174.337 119.01C173.821 119.442 173.371 119.754 172.987 119.946C172.603 120.126 172.237 120.216 171.889 120.216C171.541 120.216 171.253 120.132 171.025 119.964C170.797 119.784 170.683 119.496 170.683 119.1C170.683 118.92 170.695 118.782 170.719 118.686L171.493 114.492C171.541 114.156 171.565 113.964 171.565 113.916C171.565 113.748 171.517 113.64 171.421 113.592C171.325 113.532 171.145 113.502 170.881 113.502C170.845 113.502 170.827 113.472 170.827 113.412C170.827 113.388 170.833 113.364 170.845 113.34C170.869 113.304 170.887 113.286 170.899 113.286C171.307 113.286 171.661 113.154 171.961 112.89C172.261 112.626 172.465 112.296 172.573 111.9C172.597 111.864 172.651 111.846 172.735 111.846C172.855 111.846 172.903 111.864 172.879 111.9L172.645 113.25C173.233 113.238 174.277 113.178 175.777 113.07ZM176.156 120.18C175.916 120.18 175.724 120.114 175.58 119.982C175.448 119.85 175.382 119.664 175.382 119.424C175.382 119.196 175.448 119.016 175.58 118.884C175.724 118.752 175.916 118.686 176.156 118.686C176.396 118.686 176.582 118.752 176.714 118.884C176.846 119.016 176.912 119.196 176.912 119.424C176.912 119.664 176.846 119.85 176.714 119.982C176.582 120.114 176.396 120.18 176.156 120.18ZM188.137 114.924C188.041 115.488 187.795 116.022 187.399 116.526C187.015 117.018 186.541 117.39 185.977 117.642C186.565 117.714 187.009 117.942 187.309 118.326C187.609 118.698 187.759 119.154 187.759 119.694C187.759 120.294 187.549 120.93 187.129 121.602C186.709 122.286 186.079 122.928 185.239 123.528C184.399 124.14 183.379 124.62 182.179 124.968C182.131 124.98 182.101 124.95 182.089 124.878C182.065 124.806 182.065 124.764 182.089 124.752C183.469 124.308 184.513 123.666 185.221 122.826C185.941 121.998 186.373 121.152 186.517 120.288C186.553 120.084 186.571 119.88 186.571 119.676C186.571 119.196 186.451 118.806 186.211 118.506C185.971 118.206 185.599 118.056 185.095 118.056C184.903 118.056 184.639 118.098 184.303 118.182C184.255 118.194 184.219 118.158 184.195 118.074C184.171 117.99 184.183 117.942 184.231 117.93C185.119 117.702 185.779 117.366 186.211 116.922C186.655 116.478 186.943 115.872 187.075 115.104C187.123 114.792 187.147 114.582 187.147 114.474C187.147 114.078 187.051 113.772 186.859 113.556C186.679 113.328 186.403 113.214 186.031 113.214C185.551 113.214 185.113 113.388 184.717 113.736C184.333 114.084 183.979 114.63 183.655 115.374C183.643 115.386 183.625 115.392 183.601 115.392C183.565 115.392 183.523 115.38 183.475 115.356C183.439 115.332 183.427 115.308 183.439 115.284L184.519 112.674C184.531 112.662 184.549 112.656 184.573 112.656C184.609 112.656 184.639 112.668 184.663 112.692C184.699 112.716 184.711 112.746 184.699 112.782C184.651 112.878 184.627 112.962 184.627 113.034C184.627 113.154 184.699 113.214 184.843 113.214C184.915 113.214 185.095 113.166 185.383 113.07C185.623 112.986 185.833 112.926 186.013 112.89C186.193 112.842 186.385 112.818 186.589 112.818C187.105 112.818 187.501 112.974 187.777 113.286C188.053 113.586 188.191 113.97 188.191 114.438C188.191 114.594 188.173 114.756 188.137 114.924ZM188.854 124.95C188.83 124.962 188.806 124.95 188.782 124.914C188.758 124.878 188.752 124.848 188.764 124.824L195.028 114.042C195.076 113.958 195.058 113.916 194.974 113.916C193.39 113.916 192.274 113.946 191.626 114.006C190.99 114.054 190.552 114.156 190.312 114.312C190.084 114.468 189.88 114.75 189.7 115.158C189.7 115.182 189.676 115.194 189.628 115.194C189.592 115.194 189.556 115.182 189.52 115.158C189.484 115.134 189.472 115.11 189.484 115.086L190.492 112.53C190.492 112.506 190.51 112.494 190.546 112.494C190.582 112.494 190.618 112.506 190.654 112.53C190.702 112.554 190.72 112.572 190.708 112.584C190.672 112.692 190.654 112.776 190.654 112.836C190.654 112.92 190.702 112.98 190.798 113.016C190.906 113.04 191.098 113.052 191.374 113.052H195.676C195.724 113.052 195.76 113.082 195.784 113.142C195.808 113.19 195.808 113.238 195.784 113.286L190.348 123.96C190.24 124.164 190.102 124.308 189.934 124.392L188.854 124.95ZM120.622 140.216C120.214 140.216 119.824 140.168 119.452 140.072C119.08 139.988 118.69 139.832 118.282 139.604C118.186 139.544 118.15 139.43 118.174 139.262L118.426 136.886C118.426 136.826 118.456 136.796 118.516 136.796C118.588 136.796 118.624 136.826 118.624 136.886C118.648 137.75 118.858 138.476 119.254 139.064C119.662 139.64 120.268 139.928 121.072 139.928C121.66 139.928 122.176 139.76 122.62 139.424C123.076 139.076 123.364 138.542 123.484 137.822C123.52 137.618 123.538 137.438 123.538 137.282C123.538 136.694 123.364 136.208 123.016 135.824C122.68 135.428 122.188 135.008 121.54 134.564C121.096 134.24 120.742 133.97 120.478 133.754C120.226 133.526 120.01 133.256 119.83 132.944C119.65 132.632 119.56 132.272 119.56 131.864C119.56 131.696 119.578 131.522 119.614 131.342C119.734 130.742 119.974 130.232 120.334 129.812C120.706 129.392 121.15 129.08 121.666 128.876C122.182 128.66 122.716 128.552 123.268 128.552C123.904 128.552 124.552 128.696 125.212 128.984C125.368 129.068 125.44 129.17 125.428 129.29L125.194 131.288C125.194 131.336 125.158 131.36 125.086 131.36C125.026 131.36 124.99 131.336 124.978 131.288C124.93 130.58 124.756 129.992 124.456 129.524C124.156 129.056 123.664 128.822 122.98 128.822C122.464 128.822 122.032 128.954 121.684 129.218C121.348 129.47 121.096 129.788 120.928 130.172C120.772 130.556 120.694 130.934 120.694 131.306C120.694 131.678 120.784 132.014 120.964 132.314C121.144 132.602 121.36 132.848 121.612 133.052C121.864 133.256 122.212 133.514 122.656 133.826C123.34 134.282 123.862 134.714 124.222 135.122C124.582 135.53 124.762 136.04 124.762 136.652C124.762 136.868 124.75 137.036 124.726 137.156C124.57 138.032 124.132 138.764 123.412 139.352C122.692 139.928 121.762 140.216 120.622 140.216ZM131.907 132.854C131.943 132.854 131.973 132.878 131.997 132.926C132.033 132.974 132.039 133.01 132.015 133.034L126.957 138.794C127.089 138.746 127.263 138.722 127.479 138.722C127.779 138.722 128.355 138.8 129.207 138.956C129.903 139.076 130.341 139.136 130.521 139.136C130.713 139.136 130.863 139.076 130.971 138.956C131.091 138.836 131.211 138.62 131.331 138.308C131.331 138.296 131.349 138.29 131.385 138.29C131.421 138.29 131.457 138.302 131.493 138.326C131.529 138.338 131.541 138.356 131.529 138.38C131.361 138.896 131.217 139.274 131.097 139.514C130.989 139.742 130.869 139.898 130.737 139.982C130.617 140.054 130.449 140.09 130.233 140.09C129.933 140.09 129.579 140.054 129.171 139.982C128.763 139.91 128.517 139.868 128.433 139.856C127.689 139.7 127.095 139.616 126.651 139.604C126.459 139.604 126.291 139.64 126.147 139.712C126.003 139.784 125.841 139.922 125.661 140.126H125.643C125.619 140.126 125.589 140.102 125.553 140.054C125.517 140.006 125.505 139.976 125.517 139.964L130.593 134.186C130.485 134.246 130.311 134.276 130.071 134.276C129.891 134.276 129.663 134.252 129.387 134.204C129.111 134.156 128.841 134.102 128.577 134.042C128.025 133.91 127.647 133.844 127.443 133.844C127.251 133.844 127.095 133.91 126.975 134.042C126.855 134.174 126.729 134.402 126.597 134.726C126.585 134.762 126.561 134.78 126.525 134.78C126.489 134.78 126.453 134.768 126.417 134.744C126.393 134.708 126.387 134.666 126.399 134.618C126.591 134.054 126.747 133.658 126.867 133.43C126.987 133.202 127.119 133.058 127.263 132.998C127.407 132.926 127.617 132.896 127.893 132.908C128.145 132.92 128.607 132.998 129.279 133.142C129.987 133.286 130.521 133.37 130.881 133.394C131.073 133.394 131.241 133.358 131.385 133.286C131.529 133.214 131.691 133.076 131.871 132.872L131.907 132.854ZM137.752 133.628C137.752 134 137.554 134.36 137.158 134.708C136.774 135.044 136.252 135.338 135.592 135.59C134.944 135.842 134.242 136.028 133.486 136.148C133.426 136.532 133.396 136.862 133.396 137.138C133.396 137.882 133.564 138.482 133.9 138.938C134.236 139.382 134.71 139.604 135.322 139.604C135.994 139.604 136.594 139.406 137.122 139.01H137.158C137.194 139.01 137.224 139.028 137.248 139.064C137.284 139.1 137.284 139.136 137.248 139.172C136.408 139.868 135.532 140.216 134.62 140.216C133.864 140.216 133.288 139.976 132.892 139.496C132.508 139.004 132.316 138.374 132.316 137.606C132.316 137.342 132.346 137.03 132.406 136.67C132.514 136.058 132.766 135.458 133.162 134.87C133.558 134.27 134.05 133.778 134.638 133.394C135.238 133.01 135.862 132.818 136.51 132.818C136.906 132.818 137.212 132.89 137.428 133.034C137.644 133.178 137.752 133.376 137.752 133.628ZM135.718 133.304C135.166 133.304 134.698 133.55 134.314 134.042C133.942 134.522 133.684 135.14 133.54 135.896C134.38 135.752 135.058 135.536 135.574 135.248C136.102 134.96 136.42 134.6 136.528 134.168C136.552 134.048 136.564 133.964 136.564 133.916C136.564 133.712 136.48 133.562 136.312 133.466C136.144 133.358 135.946 133.304 135.718 133.304ZM144.912 132.908C144.972 132.908 145.002 132.98 145.002 133.124C145.002 133.268 144.972 133.424 144.912 133.592C144.864 133.748 144.816 133.814 144.768 133.79C144.492 133.646 144.156 133.574 143.76 133.574C143.604 133.574 143.484 133.58 143.4 133.592C143.652 133.94 143.778 134.372 143.778 134.888C143.778 135.14 143.754 135.368 143.706 135.572C143.598 136.1 143.388 136.568 143.076 136.976C142.764 137.372 142.398 137.684 141.978 137.912C141.57 138.128 141.15 138.236 140.718 138.236C140.598 138.236 140.454 138.224 140.286 138.2C140.13 138.38 140.04 138.572 140.016 138.776C139.98 139.088 140.094 139.358 140.358 139.586C140.634 139.802 141.06 140.054 141.636 140.342C142.092 140.582 142.452 140.786 142.716 140.954C142.992 141.122 143.226 141.332 143.418 141.584C143.622 141.836 143.724 142.124 143.724 142.448C143.724 142.904 143.55 143.33 143.202 143.726C142.854 144.134 142.386 144.458 141.798 144.698C141.222 144.938 140.598 145.058 139.926 145.058C139.098 145.058 138.438 144.878 137.946 144.518C137.454 144.17 137.208 143.744 137.208 143.24C137.208 142.712 137.43 142.244 137.874 141.836C138.318 141.428 138.96 140.984 139.8 140.504C139.368 140.192 139.152 139.856 139.152 139.496C139.152 139.256 139.224 139.034 139.368 138.83C139.512 138.614 139.728 138.38 140.016 138.128C139.656 137.996 139.374 137.762 139.17 137.426C138.978 137.09 138.882 136.706 138.882 136.274C138.882 136.07 138.912 135.836 138.972 135.572C139.116 134.816 139.476 134.192 140.052 133.7C140.628 133.196 141.27 132.944 141.978 132.944C142.47 132.944 142.872 133.082 143.184 133.358C143.82 133.058 144.396 132.908 144.912 132.908ZM142.734 136.058C142.77 135.842 142.788 135.62 142.788 135.392C142.788 134.816 142.68 134.318 142.464 133.898C142.248 133.478 141.936 133.268 141.528 133.268C141.168 133.268 140.832 133.448 140.52 133.808C140.22 134.156 140.028 134.594 139.944 135.122C139.908 135.35 139.89 135.578 139.89 135.806C139.89 136.382 140.004 136.874 140.232 137.282C140.46 137.69 140.772 137.894 141.168 137.894C141.528 137.894 141.852 137.732 142.14 137.408C142.44 137.072 142.638 136.622 142.734 136.058ZM142.824 143.096C142.824 142.676 142.656 142.322 142.32 142.034C141.984 141.758 141.492 141.446 140.844 141.098C140.508 140.942 140.22 140.786 139.98 140.63C139.404 140.99 138.966 141.314 138.666 141.602C138.378 141.902 138.234 142.286 138.234 142.754C138.234 143.27 138.468 143.696 138.936 144.032C139.404 144.38 140.022 144.554 140.79 144.554C141.438 144.554 141.936 144.416 142.284 144.14C142.644 143.864 142.824 143.516 142.824 143.096ZM150.531 133.628C150.531 134 150.333 134.36 149.937 134.708C149.553 135.044 149.031 135.338 148.371 135.59C147.723 135.842 147.021 136.028 146.265 136.148C146.205 136.532 146.175 136.862 146.175 137.138C146.175 137.882 146.343 138.482 146.679 138.938C147.015 139.382 147.489 139.604 148.101 139.604C148.773 139.604 149.373 139.406 149.901 139.01H149.937C149.973 139.01 150.003 139.028 150.027 139.064C150.063 139.1 150.063 139.136 150.027 139.172C149.187 139.868 148.311 140.216 147.399 140.216C146.643 140.216 146.067 139.976 145.671 139.496C145.287 139.004 145.095 138.374 145.095 137.606C145.095 137.342 145.125 137.03 145.185 136.67C145.293 136.058 145.545 135.458 145.941 134.87C146.337 134.27 146.829 133.778 147.417 133.394C148.017 133.01 148.641 132.818 149.289 132.818C149.685 132.818 149.991 132.89 150.207 133.034C150.423 133.178 150.531 133.376 150.531 133.628ZM148.497 133.304C147.945 133.304 147.477 133.55 147.093 134.042C146.721 134.522 146.463 135.14 146.319 135.896C147.159 135.752 147.837 135.536 148.353 135.248C148.881 134.96 149.199 134.6 149.307 134.168C149.331 134.048 149.343 133.964 149.343 133.916C149.343 133.712 149.259 133.562 149.091 133.466C148.923 133.358 148.725 133.304 148.497 133.304ZM156.758 138.398C156.722 138.578 156.704 138.734 156.704 138.866C156.704 139.25 156.824 139.442 157.064 139.442C157.304 139.442 157.7 139.166 158.252 138.614C158.276 138.59 158.294 138.578 158.306 138.578C158.342 138.578 158.372 138.602 158.396 138.65C158.432 138.686 158.432 138.722 158.396 138.758C157.964 139.238 157.592 139.592 157.28 139.82C156.968 140.048 156.662 140.162 156.362 140.162C155.942 140.162 155.732 139.898 155.732 139.37C155.732 139.178 155.774 138.854 155.858 138.398L156.2 136.616C155.648 137.744 155.06 138.632 154.436 139.28C153.824 139.916 153.2 140.234 152.564 140.234C152.132 140.234 151.778 140.096 151.502 139.82C151.226 139.532 151.088 139.082 151.088 138.47C151.088 138.338 151.112 138.092 151.16 137.732C151.316 136.868 151.64 136.058 152.132 135.302C152.636 134.546 153.23 133.946 153.914 133.502C154.61 133.046 155.3 132.818 155.984 132.818C156.32 132.818 156.608 132.896 156.848 133.052L157.64 128.858C157.664 128.666 157.676 128.54 157.676 128.48C157.676 128.168 157.544 128.012 157.28 128.012C157.088 128.012 156.794 128.102 156.398 128.282H156.362C156.326 128.282 156.296 128.252 156.272 128.192C156.26 128.132 156.278 128.096 156.326 128.084L158.666 126.95H158.702C158.738 126.95 158.774 126.968 158.81 127.004C158.846 127.04 158.858 127.07 158.846 127.094L156.758 138.398ZM153.14 139.352C153.68 139.352 154.208 139.058 154.724 138.47C155.252 137.882 155.684 137.198 156.02 136.418C156.356 135.638 156.524 135.032 156.524 134.6C156.524 134.228 156.416 133.946 156.2 133.754C155.984 133.55 155.69 133.448 155.318 133.448C154.538 133.472 153.86 133.79 153.284 134.402C152.72 135.014 152.342 135.884 152.15 137.012C152.102 137.288 152.078 137.558 152.078 137.822C152.078 138.326 152.168 138.71 152.348 138.974C152.54 139.226 152.804 139.352 153.14 139.352Z" fill="black"/>
<circle cx="30" cy="89" r="30" fill="white"/>
<path d="M22.7935 72.7765C23.4402 72.7765 23.9653 72.2515 23.9653 71.6047C23.9019 70.0498 21.6848 70.0503 21.6216 71.6047C21.6216 72.2515 22.1467 72.7765 22.7935 72.7765Z" fill="#EB848F"/>
<path d="M37.2036 105.222C36.5568 105.222 36.0317 105.747 36.0317 106.394C36.0952 107.949 38.3123 107.948 38.3755 106.394C38.3755 105.747 37.8504 105.222 37.2036 105.222Z" fill="#EB848F"/>
<path d="M37.2036 72.7765C37.8504 72.7765 38.3755 72.2515 38.3755 71.6047C38.312 70.0498 36.0949 70.0503 36.0317 71.6047C36.0317 72.2515 36.5569 72.7765 37.2036 72.7765Z" fill="#EB848F"/>
<path d="M22.7935 105.222C22.1467 105.222 21.6216 105.747 21.6216 106.394C21.685 107.949 23.9021 107.948 23.9653 106.394C23.9653 105.747 23.4402 105.222 22.7935 105.222Z" fill="#EB848F"/>
<path d="M47.3933 82.9662C48.0401 82.9662 48.5652 82.4412 48.5652 81.7944C48.5017 80.2395 46.2846 80.24 46.2214 81.7944C46.2214 82.4412 46.7465 82.9662 47.3933 82.9662Z" fill="#EB848F"/>
<path d="M12.6038 95.0332C11.957 95.0332 11.4319 95.5582 11.4319 96.2051C11.4953 97.7599 13.7124 97.7595 13.7756 96.2051C13.7756 95.5582 13.2505 95.0332 12.6038 95.0332Z" fill="#EB848F"/>
<path d="M47.3933 95.0332C46.7465 95.0332 46.2214 95.5582 46.2214 96.2051C46.2849 97.7599 48.502 97.7595 48.5652 96.2051C48.5652 95.5582 48.04 95.0332 47.3933 95.0332Z" fill="#EB848F"/>
<path d="M12.6038 82.9662C13.2505 82.9662 13.7756 82.4412 13.7756 81.7944C13.7122 80.2395 11.4951 80.24 11.4319 81.7944C11.4319 82.4412 11.957 82.9662 12.6038 82.9662Z" fill="#EB848F"/>
<path d="M31.8283 93.4224C30.8561 95.4303 31.2918 98.013 32.9007 99.575C33.5587 100.233 34.2923 100.78 35.0653 101.234C35.9864 97.9259 35.1924 94.7318 31.8283 93.4224Z" fill="#EB848F"/>
<path d="M28.6847 95.7384C28.6847 94.9238 28.5067 94.137 28.1693 93.4224C24.8046 94.733 24.0126 97.9238 24.9312 101.23C26.9774 100.05 28.7194 98.2614 28.6847 95.7384Z" fill="#EB848F"/>
<path d="M28.1666 84.5766C29.114 82.5642 28.7578 80.0854 27.0967 78.424C26.4388 77.7661 25.7052 77.2193 24.9324 76.7649C24.0117 80.0725 24.804 83.2656 28.1666 84.5766Z" fill="#EB848F"/>
<path d="M31.831 84.5764C35.1942 83.2644 35.9846 80.0743 35.0662 76.769C34.2962 77.2203 33.5597 77.7651 32.9008 78.424C31.2398 80.0853 30.8837 82.564 31.831 84.5764Z" fill="#EB848F"/>
<path d="M29.9984 87.2395C29.0277 87.2395 28.238 88.0292 28.238 88.9999C28.3348 91.3353 31.6625 91.3347 31.7588 88.9999C31.7588 88.0292 30.969 87.2395 29.9984 87.2395Z" fill="#EB848F"/>
<path d="M17.7688 83.9322C18.22 84.7021 18.7648 85.4385 19.4236 86.0973C20.9856 87.7068 23.5686 88.1426 25.5764 87.17C24.2656 83.8055 21.0749 83.0136 17.7688 83.9322Z" fill="#EB848F"/>
<path d="M19.4234 91.9016C18.7654 92.5597 18.2184 93.2932 17.7639 94.0663C21.0716 94.987 24.2648 94.1945 25.5755 90.8319C23.563 89.8847 21.0844 90.2409 19.4234 91.9016Z" fill="#EB848F"/>
<path d="M42.2288 94.0669C41.7775 93.2968 41.2326 92.5601 40.5736 91.9011C38.924 90.2561 36.4689 89.8731 34.4216 90.8314C35.7334 94.1946 38.9235 94.9853 42.2288 94.0669Z" fill="#EB848F"/>
<path d="M36.7374 87.6855C38.1875 87.6855 39.5499 87.1215 40.5738 86.0974C41.2317 85.4395 41.7786 84.7061 42.2331 83.9333C38.9246 83.0123 35.7307 83.806 34.4211 87.17C35.136 87.5075 35.9229 87.6855 36.7374 87.6855Z" fill="#EB848F"/>
<path d="M29.9988 78.3987C30.3346 77.8106 30.75 77.2605 31.2435 76.767C32.4481 75.5625 33.6106 74.9058 34.2367 74.5389C33.1864 72.2698 31.6567 70.4034 30.568 69.2462C30.2592 68.9179 29.7385 68.9179 29.4297 69.2462C28.3418 70.4027 26.8133 72.2674 25.7632 74.5345C26.3884 74.9021 27.5437 75.5565 28.7539 76.7667C29.2475 77.2604 29.663 77.8104 29.9988 78.3987Z" fill="#EB848F"/>
<path d="M29.9988 99.6011C29.663 100.189 29.2475 100.739 28.7539 101.233C27.5437 102.443 26.3884 103.098 25.7632 103.465C26.8133 105.732 28.3418 107.597 29.4297 108.754C29.7386 109.082 30.2593 109.082 30.568 108.754C31.6567 107.596 33.1863 105.73 34.2367 103.461C33.6106 103.094 32.4481 102.437 31.2435 101.233C30.75 100.739 30.3346 100.189 29.9988 99.6011Z" fill="#EB848F"/>
<path d="M37.7691 79.4688C37.769 80.1669 37.6738 80.8497 37.4953 81.5031C38.1486 81.3247 38.8313 81.2294 39.5292 81.2294C41.2327 81.2294 42.5192 81.5871 43.2212 81.7703C44.0831 79.4232 44.3211 77.0218 44.3697 75.4337C44.3834 74.9832 44.0152 74.615 43.5647 74.6288C41.9776 74.6772 39.5784 74.915 37.2327 75.7756C37.4149 76.4777 37.7691 77.7574 37.7691 79.4688Z" fill="#EB848F"/>
<path d="M22.2291 98.5287C22.2291 97.8308 22.3243 97.1481 22.5028 96.4948C21.8494 96.6733 21.1666 96.7685 20.4685 96.7686C18.757 96.7686 17.4774 96.4144 16.7753 96.2322C15.9148 98.5779 15.677 100.977 15.6285 102.564C15.6148 103.015 15.983 103.383 16.4335 103.369C18.0216 103.321 20.423 103.083 22.7701 102.221C22.5868 101.519 22.2291 100.232 22.2291 98.5287Z" fill="#EB848F"/>
<path d="M49.7538 88.4297C48.5974 87.3418 46.7326 85.8133 44.4655 84.7632C44.0979 85.3884 43.4435 86.5438 42.2333 87.7539C41.7397 88.2475 41.1896 88.663 40.6013 88.9988C41.1894 89.3345 41.7395 89.7499 42.233 90.2434C43.4375 91.4481 44.0943 92.6106 44.4611 93.2366C46.7303 92.1864 48.5967 90.6567 49.7538 89.568C50.082 89.2592 50.082 88.7385 49.7538 88.4297Z" fill="#EB848F"/>
<path d="M19.3987 88.9988C18.8105 88.663 18.2604 88.2475 17.7667 87.754C16.5566 86.5438 15.9021 85.3884 15.5345 84.7632C13.2674 85.8133 11.4027 87.3418 10.2462 88.4297C9.91793 88.7386 9.91793 89.2593 10.2462 89.568C11.4035 90.6567 13.2698 92.1864 15.5389 93.2367C15.9057 92.6107 16.5625 91.4482 17.767 90.2435C18.2605 89.75 18.8105 89.3346 19.3987 88.9988Z" fill="#EB848F"/>
<path d="M39.5308 96.7686C38.8328 96.7685 38.1499 96.6734 37.4965 96.4948C37.6749 97.1481 37.7702 97.8309 37.7703 98.5287C37.7702 100.232 37.4125 101.519 37.2292 102.221C39.5764 103.083 41.9777 103.321 43.5659 103.369C44.0163 103.383 44.3845 103.015 44.3708 102.564C44.3223 100.977 44.0845 98.5779 43.224 96.2322C42.522 96.4144 41.2423 96.7686 39.5308 96.7686Z" fill="#EB848F"/>
<path d="M20.4702 81.2293C21.1682 81.2294 21.8508 81.3246 22.5041 81.5031C22.3256 80.8496 22.2304 80.1668 22.2304 79.4688C22.2304 77.7573 22.5846 76.4776 22.7668 75.7756C20.4211 74.915 18.0218 74.6772 16.4347 74.6288C15.9842 74.615 15.616 74.9832 15.6298 75.4337C15.6782 77.0218 15.9163 79.4232 16.7782 81.7703C17.4802 81.5871 18.7666 81.2294 20.4702 81.2293Z" fill="#EB848F"/>
<defs>
<filter id="filter0_d_404_3" x="5" y="0" width="266" height="205" filterUnits="userSpaceOnUse" color-interpolation-filters="sRGB">
<feFlood flood-opacity="0" result="BackgroundImageFix"/>
<feColorMatrix in="SourceAlpha" type="matrix" values="0 0 0 0 0 0 0 0 0 0 0 0 0 0 0 0 0 0 127 0" result="hardAlpha"/>
<feOffset dy="10"/>
<feGaussianBlur stdDeviation="20"/>
<feComposite in2="hardAlpha" operator="out"/>
<feColorMatrix type="matrix" values="0 0 0 0 0.921569 0 0 0 0 0.517647 0 0 0 0 0.560784 0 0 0 0.5 0"/>
<feBlend mode="normal" in2="BackgroundImageFix" result="effect1_dropShadow_404_3"/>
<feBlend mode="normal" in="SourceGraphic" in2="effect1_dropShadow_404_3" result="shape"/>
</filter>
</defs>
</svg>
