<svg width="31" height="31" viewBox="0 0 31 31" fill="none" xmlns="http://www.w3.org/2000/svg">
<path d="M29.0352 2.21484L23.1758 0.808594C22.2969 0.632812 21.418 1.04297 21.0664 1.86328L18.3125 8.25C18.0195 9.01172 18.1953 9.89062 18.8398 10.3594L22.0039 12.9375C20.0117 17.0391 16.7305 20.3203 12.6289 22.3125L10.0508 19.1484C9.58203 18.5039 8.70312 18.3281 7.94141 18.6211L1.55469 21.375C0.792969 21.7266 0.324219 22.6055 0.5 23.4258L1.90625 29.3438C2.08203 30.1641 2.78516 30.75 3.66406 30.75C18.4297 30.75 30.5 18.7969 30.5 3.97266C30.5 3.09375 29.9141 2.39062 29.0352 2.21484ZM3.72266 28.875L2.375 23.0742L8.64453 20.3789L12.1602 24.6562C18.1953 21.7852 21.4766 18.5039 24.3477 12.4688L20.0703 8.95312L22.7656 2.68359L28.5664 4.03125C28.5664 17.7422 17.4336 28.875 3.72266 28.875Z" fill="white"/>
</svg>
