<svg width="292" height="105" viewBox="0 0 292 105" fill="none" xmlns="http://www.w3.org/2000/svg">
<path d="M144.151 104.264C145.338 104.737 146.662 104.737 147.849 104.264L288.341 48.3405C290.244 47.5833 291.492 45.7426 291.492 43.695V5C291.492 2.23858 289.254 0 286.492 0H5.50782C2.74639 0 0.507812 2.23858 0.507812 5V43.695C0.507812 45.7426 1.75625 47.5833 3.65866 48.3405L144.151 104.264Z" fill="#8E6B8E"/>
<path d="M46.5691 36.52C46.6491 36.52 46.6891 36.6 46.6891 36.76C46.6891 36.92 46.6491 37 46.5691 37C45.6357 37 44.8891 36.9867 44.3291 36.96L41.2491 36.92L37.6491 36.96C37.1691 36.9867 36.5157 37 35.6891 37C35.6091 37 35.5691 36.92 35.5691 36.76C35.5691 36.6 35.6091 36.52 35.6891 36.52C36.6757 36.52 37.3957 36.4533 37.8491 36.32C38.3024 36.1867 38.6091 35.9333 38.7691 35.56C38.9291 35.1867 39.0091 34.5867 39.0091 33.76V24.56H26.0891V33.76C26.0891 34.56 26.1691 35.16 26.3291 35.56C26.4891 35.9333 26.7957 36.1867 27.2491 36.32C27.7024 36.4533 28.4224 36.52 29.4091 36.52C29.4624 36.52 29.4891 36.6 29.4891 36.76C29.4891 36.92 29.4624 37 29.4091 37C28.4757 37 27.7291 36.9867 27.1691 36.96L23.6891 36.92L20.6891 36.96C20.1557 36.9867 19.4224 37 18.4891 37C18.4357 37 18.4091 36.92 18.4091 36.76C18.4091 36.6 18.4357 36.52 18.4891 36.52C19.4224 36.52 20.1024 36.4533 20.5291 36.32C20.9557 36.1867 21.2491 35.9333 21.4091 35.56C21.5691 35.16 21.6491 34.56 21.6491 33.76V15.24C21.6491 14.44 21.5691 13.8533 21.4091 13.48C21.2491 13.1067 20.9557 12.8533 20.5291 12.72C20.1291 12.56 19.4757 12.48 18.5691 12.48C18.4891 12.48 18.4491 12.4 18.4491 12.24C18.4491 12.08 18.4891 12 18.5691 12L20.7291 12.04C21.9557 12.0933 22.9424 12.12 23.6891 12.12C24.7024 12.12 25.8757 12.0933 27.2091 12.04L29.4091 12C29.4624 12 29.4891 12.08 29.4891 12.24C29.4891 12.4 29.4624 12.48 29.4091 12.48C28.4491 12.48 27.7424 12.56 27.2891 12.72C26.8357 12.88 26.5157 13.16 26.3291 13.56C26.1691 13.9333 26.0891 14.52 26.0891 15.32V23.44H39.0091V15.32C39.0091 14.52 38.9291 13.9333 38.7691 13.56C38.6091 13.16 38.3024 12.88 37.8491 12.72C37.3957 12.56 36.6757 12.48 35.6891 12.48C35.6091 12.48 35.5691 12.4 35.5691 12.24C35.5691 12.08 35.6091 12 35.6891 12L37.6491 12.04C38.9824 12.0933 40.1824 12.12 41.2491 12.12C41.9691 12.12 42.9957 12.0933 44.3291 12.04L46.5691 12C46.6491 12 46.6891 12.08 46.6891 12.24C46.6891 12.4 46.6491 12.48 46.5691 12.48C45.6624 12.48 44.9824 12.56 44.5291 12.72C44.1024 12.8533 43.8091 13.1067 43.6491 13.48C43.5157 13.8533 43.4491 14.44 43.4491 15.24V33.76C43.4491 34.56 43.5157 35.16 43.6491 35.56C43.8091 35.9333 44.1024 36.1867 44.5291 36.32C44.9557 36.4533 45.6357 36.52 46.5691 36.52ZM76.5159 36.52C76.6493 36.52 76.7159 36.6 76.7159 36.76C76.7159 36.92 76.6493 37 76.5159 37C75.9826 37 75.1559 36.9733 74.0359 36.92C72.8626 36.8667 72.0226 36.84 71.5159 36.84C70.8493 36.84 70.0359 36.8667 69.0759 36.92C68.1693 36.9733 67.4493 37 66.9159 37C66.8093 37 66.7559 36.92 66.7559 36.76C66.7559 36.6 66.8093 36.52 66.9159 36.52C67.6093 36.52 68.1026 36.4533 68.3959 36.32C68.7159 36.16 68.8759 35.8933 68.8759 35.52C68.8759 35.0667 68.6093 34.3067 68.0759 33.24L65.3559 27.84H55.5159L53.9559 31.32C53.6093 32.0933 53.4359 32.8133 53.4359 33.48C53.4359 34.44 53.7693 35.1867 54.4359 35.72C55.1293 36.2533 56.0493 36.52 57.1959 36.52C57.3293 36.52 57.3959 36.6 57.3959 36.76C57.3959 36.92 57.3293 37 57.1959 37C56.7159 37 56.0226 36.9733 55.1159 36.92C54.1026 36.8667 53.2226 36.84 52.4759 36.84C51.7559 36.84 50.8893 36.8667 49.8759 36.92C48.9693 36.9733 48.2359 37 47.6759 37C47.5693 37 47.5159 36.92 47.5159 36.76C47.5159 36.6 47.5693 36.52 47.6759 36.52C48.4226 36.52 49.0493 36.3733 49.5559 36.08C50.0626 35.76 50.5693 35.2133 51.0759 34.44C51.5826 33.64 52.1826 32.4667 52.8759 30.92L61.5559 11.84C61.6093 11.76 61.7293 11.72 61.9159 11.72C62.1293 11.72 62.2493 11.76 62.2759 11.84L72.2759 31.52C73.2093 33.4133 73.9826 34.72 74.5959 35.44C75.2093 36.16 75.8493 36.52 76.5159 36.52ZM56.0359 26.72H64.7559L60.1559 17.6L56.0359 26.72ZM109.789 36.52C109.842 36.52 109.869 36.6 109.869 36.76C109.869 36.92 109.842 37 109.789 37C108.882 37 108.162 36.9867 107.629 36.96L104.669 36.92L101.669 36.96C101.162 36.9867 100.469 37 99.5888 37C99.5088 37 99.4688 36.92 99.4688 36.76C99.4688 36.6 99.5088 36.52 99.5888 36.52C100.709 36.52 101.469 36.3867 101.869 36.12C102.269 35.8533 102.469 35.2933 102.469 34.44L102.429 33.76L101.589 17.4L93.3488 36.72C93.2954 36.8267 93.1888 36.88 93.0288 36.88C92.8688 36.88 92.7621 36.8267 92.7088 36.72L82.5888 17.48L82.2688 31.92C82.2421 33.36 82.5221 34.4933 83.1088 35.32C83.7221 36.12 84.5754 36.52 85.6688 36.52C85.7488 36.52 85.7888 36.6 85.7888 36.76C85.7888 36.92 85.7488 37 85.6688 37C84.9488 37 84.3888 36.9867 83.9888 36.96L81.7888 36.92L79.2688 36.96C78.8421 36.9867 78.2688 37 77.5488 37C77.4688 37 77.4288 36.92 77.4288 36.76C77.4288 36.6 77.4688 36.52 77.5488 36.52C78.6421 36.52 79.5088 36.1067 80.1488 35.28C80.7888 34.4533 81.1221 33.3333 81.1488 31.92L81.5088 15.36L81.4688 15.32C80.9354 14.3333 80.3754 13.6133 79.7888 13.16C79.2288 12.7067 78.5754 12.48 77.8288 12.48C77.7488 12.48 77.7088 12.4 77.7088 12.24C77.7088 12.08 77.7488 12 77.8288 12L79.7088 12.04C80.0821 12.0667 80.5621 12.08 81.1488 12.08L83.2688 12.04C83.5088 12.0133 83.8154 12 84.1888 12C84.5354 12 84.8021 12.12 84.9888 12.36C85.1754 12.6 85.5221 13.1733 86.0288 14.08L94.7488 30.44L102.349 13C102.509 12.6267 102.669 12.3733 102.829 12.24C103.015 12.08 103.255 12 103.549 12C103.789 12 104.055 12.0133 104.349 12.04C104.669 12.0667 105.029 12.08 105.429 12.08L107.789 12.04C108.162 12.0133 108.695 12 109.389 12C109.469 12 109.509 12.08 109.509 12.24C109.509 12.4 109.469 12.48 109.389 12.48C108.135 12.48 107.229 12.7333 106.669 13.24C106.109 13.7467 105.855 14.5333 105.909 15.6L106.869 33.76C106.922 34.5867 107.015 35.1867 107.149 35.56C107.309 35.9333 107.575 36.1867 107.949 36.32C108.349 36.4533 108.962 36.52 109.789 36.52ZM139.446 36.52C139.579 36.52 139.646 36.6 139.646 36.76C139.646 36.92 139.579 37 139.446 37C138.912 37 138.086 36.9733 136.966 36.92C135.792 36.8667 134.952 36.84 134.446 36.84C133.779 36.84 132.966 36.8667 132.006 36.92C131.099 36.9733 130.379 37 129.846 37C129.739 37 129.686 36.92 129.686 36.76C129.686 36.6 129.739 36.52 129.846 36.52C130.539 36.52 131.032 36.4533 131.326 36.32C131.646 36.16 131.806 35.8933 131.806 35.52C131.806 35.0667 131.539 34.3067 131.006 33.24L128.286 27.84H118.446L116.886 31.32C116.539 32.0933 116.366 32.8133 116.366 33.48C116.366 34.44 116.699 35.1867 117.366 35.72C118.059 36.2533 118.979 36.52 120.126 36.52C120.259 36.52 120.326 36.6 120.326 36.76C120.326 36.92 120.259 37 120.126 37C119.646 37 118.952 36.9733 118.046 36.92C117.032 36.8667 116.152 36.84 115.406 36.84C114.686 36.84 113.819 36.8667 112.806 36.92C111.899 36.9733 111.166 37 110.606 37C110.499 37 110.446 36.92 110.446 36.76C110.446 36.6 110.499 36.52 110.606 36.52C111.352 36.52 111.979 36.3733 112.486 36.08C112.992 35.76 113.499 35.2133 114.006 34.44C114.512 33.64 115.112 32.4667 115.806 30.92L124.486 11.84C124.539 11.76 124.659 11.72 124.846 11.72C125.059 11.72 125.179 11.76 125.206 11.84L135.206 31.52C136.139 33.4133 136.912 34.72 137.526 35.44C138.139 36.16 138.779 36.52 139.446 36.52ZM118.966 26.72H127.686L123.086 17.6L118.966 26.72ZM167.718 36.52C167.772 36.52 167.798 36.6 167.798 36.76C167.798 36.92 167.772 37 167.718 37H160.598C160.012 37 158.918 35.9467 157.318 33.84C155.718 31.7067 153.785 28.7333 151.518 24.92C151.305 24.9467 150.998 24.96 150.598 24.96C149.558 24.96 148.825 24.9467 148.398 24.92V33.76C148.398 34.5867 148.465 35.1867 148.598 35.56C148.732 35.9333 148.985 36.1867 149.358 36.32C149.758 36.4533 150.385 36.52 151.238 36.52C151.292 36.52 151.318 36.6 151.318 36.76C151.318 36.92 151.292 37 151.238 37C150.358 37 149.665 36.9867 149.158 36.96L146.118 36.92L143.198 36.96C142.665 36.9867 141.945 37 141.038 37C140.958 37 140.918 36.92 140.918 36.76C140.918 36.6 140.958 36.52 141.038 36.52C141.892 36.52 142.505 36.4533 142.878 36.32C143.278 36.1867 143.545 35.9333 143.678 35.56C143.838 35.16 143.918 34.56 143.918 33.76V15.24C143.918 14.44 143.852 13.8533 143.718 13.48C143.585 13.1067 143.318 12.8533 142.918 12.72C142.518 12.56 141.905 12.48 141.078 12.48C141.025 12.48 140.998 12.4 140.998 12.24C140.998 12.08 141.025 12 141.078 12L143.198 12.04C144.425 12.0933 145.398 12.12 146.118 12.12C147.025 12.12 147.972 12.08 148.958 12C149.305 11.9733 149.732 11.9467 150.238 11.92C150.772 11.8933 151.358 11.88 151.998 11.88C154.425 11.88 156.305 12.3333 157.638 13.24C158.972 14.12 159.638 15.36 159.638 16.96C159.638 18.4267 159.238 19.76 158.438 20.96C157.638 22.1333 156.572 23.08 155.238 23.8C157.372 27 159.158 29.5067 160.598 31.32C162.038 33.1333 163.318 34.4533 164.438 35.28C165.558 36.1067 166.652 36.52 167.718 36.52ZM148.398 23.8C149.038 23.9067 149.812 23.96 150.718 23.96C152.265 23.96 153.372 23.5333 154.038 22.68C154.732 21.8 155.078 20.4 155.078 18.48C155.078 16.2933 154.758 14.7867 154.118 13.96C153.478 13.1333 152.558 12.72 151.358 12.72C150.292 12.72 149.532 12.92 149.078 13.32C148.625 13.72 148.398 14.3867 148.398 15.32V23.8ZM180.093 37.48C177.613 37.48 175.4 36.9067 173.453 35.76C171.533 34.5867 170.04 33.0133 168.973 31.04C167.933 29.04 167.413 26.8667 167.413 24.52C167.413 21.7733 168.106 19.4267 169.493 17.48C170.88 15.5067 172.653 14.0267 174.813 13.04C177 12.0533 179.226 11.56 181.493 11.56C184.026 11.56 186.253 12.16 188.173 13.36C190.093 14.5333 191.56 16.0933 192.573 18.04C193.613 19.9867 194.133 22.0533 194.133 24.24C194.133 26.6667 193.493 28.8933 192.213 30.92C190.933 32.9467 189.213 34.5467 187.053 35.72C184.92 36.8933 182.6 37.48 180.093 37.48ZM181.413 36.48C182.906 36.48 184.24 36.0533 185.413 35.2C186.613 34.32 187.546 33.0533 188.213 31.4C188.88 29.72 189.213 27.72 189.213 25.4C189.213 22.9467 188.84 20.76 188.093 18.84C187.346 16.8933 186.266 15.3733 184.853 14.28C183.44 13.1867 181.786 12.64 179.893 12.64C177.466 12.64 175.6 13.56 174.293 15.4C172.986 17.2133 172.333 19.76 172.333 23.04C172.333 25.6267 172.72 27.9467 173.493 30C174.293 32.0267 175.373 33.6133 176.733 34.76C178.12 35.9067 179.68 36.48 181.413 36.48ZM203.038 16.04C203.038 17 203.278 17.8533 203.758 18.6C204.265 19.3467 204.878 20 205.598 20.56C206.318 21.12 207.291 21.8 208.518 22.6C209.851 23.4533 210.918 24.2 211.718 24.84C212.518 25.48 213.198 26.2667 213.758 27.2C214.318 28.1067 214.598 29.16 214.598 30.36C214.598 31.7467 214.225 32.9867 213.478 34.08C212.731 35.1467 211.691 35.9867 210.358 36.6C209.051 37.1867 207.585 37.48 205.958 37.48C204.758 37.48 203.505 37.32 202.198 37C200.891 36.6533 200.011 36.28 199.558 35.88C199.425 35.7733 199.318 35.68 199.238 35.6C199.185 35.4933 199.158 35.3333 199.158 35.12L199.038 28.76V28.72C199.038 28.6133 199.105 28.56 199.238 28.56C199.371 28.5333 199.451 28.5733 199.478 28.68C200.278 30.3067 200.971 31.6267 201.558 32.64C202.171 33.6533 202.931 34.5467 203.838 35.32C204.771 36.0933 205.825 36.48 206.998 36.48C208.065 36.48 208.945 36.2 209.638 35.64C210.331 35.0533 210.678 34.0667 210.678 32.68C210.678 31.5067 210.411 30.48 209.878 29.6C209.371 28.72 208.745 27.9733 207.998 27.36C207.251 26.7467 206.225 26.0133 204.918 25.16C203.638 24.3333 202.638 23.6267 201.918 23.04C201.225 22.4533 200.625 21.7467 200.118 20.92C199.611 20.0933 199.358 19.12 199.358 18C199.358 16.5867 199.758 15.4 200.558 14.44C201.385 13.4533 202.438 12.7333 203.718 12.28C204.998 11.8 206.345 11.56 207.758 11.56C208.691 11.56 209.638 11.6533 210.598 11.84C211.558 12 212.331 12.2 212.918 12.44C213.158 12.5467 213.318 12.6667 213.398 12.8C213.478 12.9067 213.518 13.0533 213.518 13.24V19.12C213.518 19.2 213.451 19.2667 213.318 19.32C213.185 19.3467 213.105 19.32 213.078 19.24L212.758 18.48C212.091 16.8 211.305 15.3733 210.398 14.2C209.518 13.0267 208.278 12.44 206.678 12.44C205.611 12.44 204.731 12.7467 204.038 13.36C203.371 13.9733 203.038 14.8667 203.038 16.04ZM245.344 36.52C245.477 36.52 245.544 36.6 245.544 36.76C245.544 36.92 245.477 37 245.344 37C244.811 37 243.984 36.9733 242.864 36.92C241.691 36.8667 240.851 36.84 240.344 36.84C239.677 36.84 238.864 36.8667 237.904 36.92C236.997 36.9733 236.277 37 235.744 37C235.637 37 235.584 36.92 235.584 36.76C235.584 36.6 235.637 36.52 235.744 36.52C236.437 36.52 236.931 36.4533 237.224 36.32C237.544 36.16 237.704 35.8933 237.704 35.52C237.704 35.0667 237.437 34.3067 236.904 33.24L234.184 27.84H224.344L222.784 31.32C222.437 32.0933 222.264 32.8133 222.264 33.48C222.264 34.44 222.597 35.1867 223.264 35.72C223.957 36.2533 224.877 36.52 226.024 36.52C226.157 36.52 226.224 36.6 226.224 36.76C226.224 36.92 226.157 37 226.024 37C225.544 37 224.851 36.9733 223.944 36.92C222.931 36.8667 222.051 36.84 221.304 36.84C220.584 36.84 219.717 36.8667 218.704 36.92C217.797 36.9733 217.064 37 216.504 37C216.397 37 216.344 36.92 216.344 36.76C216.344 36.6 216.397 36.52 216.504 36.52C217.251 36.52 217.877 36.3733 218.384 36.08C218.891 35.76 219.397 35.2133 219.904 34.44C220.411 33.64 221.011 32.4667 221.704 30.92L230.384 11.84C230.437 11.76 230.557 11.72 230.744 11.72C230.957 11.72 231.077 11.76 231.104 11.84L241.104 31.52C242.037 33.4133 242.811 34.72 243.424 35.44C244.037 36.16 244.677 36.52 245.344 36.52ZM224.864 26.72H233.584L228.984 17.6L224.864 26.72ZM274.217 12C274.27 12 274.297 12.08 274.297 12.24C274.297 12.4 274.27 12.48 274.217 12.48C273.15 12.48 272.31 12.9067 271.697 13.76C271.084 14.5867 270.777 15.7067 270.777 17.12V37.6C270.777 37.68 270.71 37.7333 270.577 37.76C270.47 37.7867 270.39 37.7733 270.337 37.72L251.577 16.36V31.92C251.577 33.3333 251.87 34.4533 252.457 35.28C253.044 36.1067 253.857 36.52 254.897 36.52C254.95 36.52 254.977 36.6 254.977 36.76C254.977 36.92 254.95 37 254.897 37C254.15 37 253.577 36.9867 253.177 36.96L251.017 36.92L248.537 36.96C248.084 36.9867 247.43 37 246.577 37C246.497 37 246.457 36.92 246.457 36.76C246.457 36.6 246.497 36.52 246.577 36.52C247.75 36.52 248.67 36.1067 249.337 35.28C250.03 34.4533 250.377 33.3333 250.377 31.92V15C249.497 14.04 248.737 13.3867 248.097 13.04C247.484 12.6667 246.844 12.48 246.177 12.48C246.124 12.48 246.097 12.4 246.097 12.24C246.097 12.08 246.124 12 246.177 12L247.857 12.04C248.204 12.0667 248.71 12.08 249.377 12.08L252.417 12.04C252.79 12.0133 253.244 12 253.777 12C253.99 12 254.15 12.0533 254.257 12.16C254.364 12.2667 254.55 12.4933 254.817 12.84C255.27 13.4533 255.59 13.8667 255.777 14.08L269.617 30.04V17.12C269.617 15.68 269.324 14.5467 268.737 13.72C268.15 12.8933 267.337 12.48 266.297 12.48C266.244 12.48 266.217 12.4 266.217 12.24C266.217 12.08 266.244 12 266.297 12L268.017 12.04C268.87 12.0933 269.59 12.12 270.177 12.12C270.71 12.12 271.457 12.0933 272.417 12.04L274.217 12Z" fill="white"/>
<path d="M137.926 51.7765C138.681 51.7765 139.293 51.2515 139.293 50.6047C139.219 49.0498 136.633 49.0503 136.559 50.6047C136.559 51.2515 137.172 51.7765 137.926 51.7765Z" fill="white"/>
<path d="M154.738 84.2229C153.983 84.2229 153.37 84.7479 153.37 85.3948C153.444 86.9496 156.031 86.9492 156.105 85.3948C156.105 84.7479 155.492 84.2229 154.738 84.2229Z" fill="white"/>
<path d="M154.738 51.7765C155.492 51.7765 156.105 51.2515 156.105 50.6047C156.031 49.0498 153.444 49.0503 153.37 50.6047C153.37 51.2515 153.983 51.7765 154.738 51.7765Z" fill="white"/>
<path d="M137.926 84.2229C137.171 84.2229 136.559 84.7479 136.559 85.3948C136.633 86.9496 139.219 86.9492 139.293 85.3948C139.293 84.7479 138.681 84.2229 137.926 84.2229Z" fill="white"/>
<path d="M166.625 61.9662C167.38 61.9662 167.993 61.4412 167.993 60.7943C167.919 59.2395 165.332 59.2399 165.258 60.7943C165.258 61.4412 165.871 61.9662 166.625 61.9662Z" fill="white"/>
<path d="M126.038 74.0333C125.283 74.0333 124.67 74.5583 124.67 75.2052C124.744 76.7601 127.331 76.7596 127.405 75.2052C127.405 74.5583 126.792 74.0333 126.038 74.0333Z" fill="white"/>
<path d="M166.625 74.0333C165.871 74.0333 165.258 74.5583 165.258 75.2052C165.332 76.7601 167.919 76.7596 167.993 75.2052C167.993 74.5583 167.38 74.0333 166.625 74.0333Z" fill="white"/>
<path d="M126.038 61.9662C126.792 61.9662 127.405 61.4412 127.405 60.7943C127.331 59.2395 124.744 59.2399 124.67 60.7943C124.67 61.4412 125.283 61.9662 126.038 61.9662Z" fill="white"/>
<path d="M148.466 72.4228C147.332 74.4308 147.84 77.0135 149.718 78.5755C150.485 79.2335 151.341 79.7804 152.243 80.2349C153.317 76.9263 152.391 73.7323 148.466 72.4228Z" fill="white"/>
<path d="M144.799 74.7388C144.799 73.9243 144.591 73.1375 144.198 72.4228C140.272 73.7334 139.348 76.9243 140.42 80.2306C142.807 79.0505 144.839 77.2619 144.799 74.7388V74.7388Z" fill="white"/>
<path d="M144.194 63.5766C145.3 61.5642 144.884 59.0854 142.946 57.424C142.179 56.766 141.323 56.2192 140.421 55.7649C139.347 59.0725 140.271 62.2657 144.194 63.5766Z" fill="white"/>
<path d="M148.47 63.5768C152.393 62.2648 153.315 59.0747 152.244 55.7694C151.346 56.2206 150.486 56.7654 149.718 57.4243C147.78 59.0856 147.364 61.5644 148.47 63.5768Z" fill="white"/>
<path d="M146.332 66.2395C145.199 66.2395 144.278 67.0292 144.278 68C144.391 70.3354 148.273 70.3348 148.385 68C148.385 67.0292 147.464 66.2395 146.332 66.2395V66.2395Z" fill="white"/>
<path d="M132.064 62.9322C132.59 63.7021 133.226 64.4386 133.995 65.0974C135.817 66.7069 138.83 67.1426 141.173 66.1701C139.644 62.8055 135.921 62.0136 132.064 62.9322V62.9322Z" fill="white"/>
<path d="M133.994 70.9017C133.226 71.5598 132.588 72.2933 132.058 73.0664C135.917 73.9872 139.642 73.1946 141.171 69.8319C138.824 68.8848 135.932 69.2409 133.994 70.9017Z" fill="white"/>
<path d="M160.601 73.0675C160.074 72.2974 159.438 71.5607 158.67 70.9017C156.745 69.2566 153.881 68.8737 151.492 69.8319C153.023 73.1952 156.744 73.9859 160.601 73.0675V73.0675Z" fill="white"/>
<path d="M154.194 66.6856C155.885 66.6856 157.475 66.1216 158.669 65.0975C159.437 64.4396 160.075 63.7061 160.605 62.9333C156.745 62.0123 153.019 62.8061 151.491 66.17C152.325 66.5075 153.243 66.6856 154.194 66.6856Z" fill="white"/>
<path d="M146.332 57.3988C146.724 56.8107 147.208 56.2606 147.784 55.7671C149.189 54.5626 150.546 53.9058 151.276 53.539C150.051 51.2698 148.266 49.4034 146.996 48.2462C146.636 47.9179 146.028 47.9179 145.668 48.2462C144.399 49.4027 142.616 51.2675 141.39 53.5346C142.12 53.9022 143.468 54.5566 144.88 55.7668C145.455 56.2605 145.94 56.8105 146.332 57.3988V57.3988Z" fill="white"/>
<path d="M146.332 78.6011C145.94 79.1894 145.455 79.7395 144.88 80.2332C143.468 81.4434 142.12 82.0978 141.39 82.4654C142.616 84.7326 144.399 86.5973 145.668 87.7538C146.028 88.082 146.636 88.082 146.996 87.7538C148.266 86.5965 150.051 84.7301 151.276 82.461C150.546 82.0942 149.19 81.4374 147.784 80.2328C147.208 79.7393 146.724 79.1893 146.332 78.6011V78.6011Z" fill="white"/>
<path d="M155.397 58.4688C155.397 59.1669 155.286 59.8497 155.078 60.5031C155.84 60.3247 156.637 60.2295 157.451 60.2294C159.438 60.2295 160.939 60.5871 161.758 60.7703C162.764 58.4232 163.041 56.0218 163.098 54.4337C163.114 53.9832 162.684 53.615 162.159 53.6287C160.307 53.6772 157.508 53.915 154.771 54.7755C154.984 55.4776 155.397 56.7573 155.397 58.4688V58.4688Z" fill="white"/>
<path d="M137.267 77.5293C137.268 76.8313 137.379 76.1487 137.587 75.4954C136.825 75.6739 136.028 75.7691 135.214 75.7691C133.217 75.7691 131.724 75.4149 130.905 75.2327C129.901 77.5784 129.623 79.9778 129.567 81.5649C129.551 82.0154 129.98 82.3836 130.506 82.3698C132.359 82.3214 135.16 82.0832 137.899 81.2214C137.685 80.5193 137.268 79.2328 137.267 77.5293V77.5293Z" fill="white"/>
<path d="M169.38 67.4299C168.03 66.3419 165.855 64.8135 163.21 63.7633C162.781 64.3886 162.018 65.544 160.606 66.7541C160.03 67.2477 159.388 67.6632 158.702 67.999C159.388 68.3348 160.03 68.7501 160.605 69.2437C162.011 70.4484 162.777 71.6109 163.205 72.2369C165.852 71.1866 168.03 69.6569 169.38 68.5682C169.763 68.2594 169.763 67.7387 169.38 67.4299V67.4299Z" fill="white"/>
<path d="M133.965 67.999C133.279 67.6632 132.637 67.2477 132.061 66.7541C130.649 65.544 129.886 64.3886 129.457 63.7633C126.812 64.8135 124.636 66.3419 123.287 67.4299C122.904 67.7388 122.904 68.2595 123.287 68.5682C124.637 69.6569 126.815 71.1866 129.462 72.2369C129.89 71.611 130.656 70.4484 132.062 69.2437C132.637 68.7502 133.279 68.3348 133.965 67.999V67.999Z" fill="white"/>
<path d="M157.453 75.7691C156.638 75.7691 155.842 75.6739 155.079 75.4954C155.288 76.1487 155.399 76.8314 155.399 77.5293C155.399 79.2329 154.981 80.5194 154.768 81.2214C157.506 82.0833 160.308 82.3213 162.16 82.3698C162.686 82.3836 163.115 82.0154 163.099 81.5649C163.043 79.9778 162.765 77.5785 161.761 75.2327C160.942 75.4149 159.449 75.7691 157.453 75.7691V75.7691Z" fill="white"/>
<path d="M135.216 60.2297C136.03 60.2298 136.826 60.325 137.588 60.5035C137.38 59.85 137.269 59.1672 137.269 58.4692C137.269 56.7577 137.682 55.478 137.895 54.7759C135.158 53.9154 132.359 53.6775 130.507 53.6291C129.982 53.6154 129.552 53.9836 129.568 54.434C129.625 56.0222 129.903 58.4236 130.908 60.7707C131.727 60.5875 133.228 60.2298 135.216 60.2297V60.2297Z" fill="white"/>
</svg>
