<svg width="1096" height="124" viewBox="0 0 1096 124" fill="none" xmlns="http://www.w3.org/2000/svg">
<path d="M1220 87.4395L1179.33 84.543C1138.67 81.428 1057.33 75.963 976 84.543C894.667 93.4509 813.333 116.404 732 122.415C650.667 128.427 569.333 116.404 488 102.031C406.667 87.4395 325.333 69.9516 244 72.848C162.667 75.963 81.3333 98.9159 40.6666 110.775L0 122.415V0H40.6666C81.3333 0 162.667 0 244 0C325.333 0 406.667 0 488 0C569.333 0 650.667 0 732 0C813.333 0 894.667 0 976 0C1057.33 0 1138.67 0 1179.33 0H1220V87.4395Z" fill="#a48389"/>
</svg>
