<svg width="1220" height="124" viewBox="0 0 1220 124" fill="none" xmlns="http://www.w3.org/2000/svg">
<path d="M0 36.5605L40.6667 39.457C81.3333 42.572 162.667 48.037 244 39.457C325.333 30.5491 406.667 7.59622 488 1.58476C569.333 -4.42671 650.667 7.59622 732 21.9691C813.333 36.5605 894.667 54.0484 976 51.152C1057.33 48.037 1138.67 25.0841 1179.33 13.2251L1220 1.58476V124H1179.33C1138.67 124 1057.33 124 976 124C894.667 124 813.333 124 732 124C650.667 124 569.333 124 488 124C406.667 124 325.333 124 244 124C162.667 124 81.3333 124 40.6667 124H0V36.5605Z" fill="#FFFAFA"/>
</svg>
