<svg width="34" height="36" viewBox="0 0 34 36" fill="none" xmlns="http://www.w3.org/2000/svg">
<path d="M32.0376 0.5H1.91567C1.42197 0.5 0.948503 0.702812 0.59941 1.06382C0.250318 1.42483 0.0541992 1.91446 0.0541992 2.425V33.575C0.0541992 33.8278 0.102348 34.0781 0.195895 34.3117C0.289443 34.5452 0.426557 34.7574 0.59941 34.9362C0.772264 35.1149 0.97747 35.2567 1.20331 35.3535C1.42916 35.4502 1.67121 35.5 1.91567 35.5H18.1273V21.9375H13.7275V16.6875H18.1273V12.75C18.0362 11.8256 18.1417 10.8917 18.4365 10.0139C18.7314 9.13616 19.2083 8.33571 19.8339 7.66872C20.4595 7.00174 21.2187 6.48437 22.0581 6.15292C22.8976 5.82146 23.797 5.68394 24.6932 5.75C26.0104 5.74162 27.3269 5.81173 28.6362 5.96V10.685H25.9455C23.8133 10.685 23.4071 11.735 23.4071 13.2575V16.635H28.4839L27.8239 21.885H23.4071V35.5H32.0376C32.282 35.5 32.5241 35.4502 32.7499 35.3535C32.9758 35.2567 33.181 35.1149 33.3538 34.9362C33.5267 34.7574 33.6638 34.5452 33.7574 34.3117C33.8509 34.0781 33.899 33.8278 33.899 33.575V2.425C33.899 2.17221 33.8509 1.92189 33.7574 1.68833C33.6638 1.45478 33.5267 1.24257 33.3538 1.06382C33.181 0.885067 32.9758 0.743272 32.7499 0.646532C32.5241 0.549792 32.282 0.5 32.0376 0.5Z" fill="#907295"/>
</svg>
