<svg width="35" height="36" viewBox="0 0 35 36" fill="none" xmlns="http://www.w3.org/2000/svg">
<path d="M17.744 13.66C16.9139 13.66 16.1025 13.9145 15.4124 14.3914C14.7222 14.8683 14.1843 15.5461 13.8667 16.3392C13.549 17.1322 13.4659 18.0048 13.6278 18.8467C13.7898 19.6886 14.1895 20.4619 14.7764 21.0688C15.3633 21.6758 16.1111 22.0891 16.9252 22.2566C17.7393 22.4241 18.5831 22.3381 19.35 22.0096C20.1168 21.6812 20.7723 21.1249 21.2334 20.4112C21.6946 19.6975 21.9407 18.8584 21.9407 18C21.9407 17.4301 21.8322 16.8657 21.6213 16.3392C21.4104 15.8126 21.1012 15.3342 20.7115 14.9312C20.3218 14.5281 19.8592 14.2085 19.35 13.9904C18.8408 13.7723 18.2951 13.66 17.744 13.66ZM34.5479 9.3725C34.539 8.02108 34.2984 6.682 33.8372 5.4175C33.4975 4.4922 32.972 3.65191 32.2952 2.95207C31.6185 2.25223 30.8059 1.70876 29.9112 1.3575C28.6884 0.880562 27.3935 0.631707 26.0867 0.6225C23.9037 0.5 23.2607 0.5 17.744 0.5C12.2272 0.5 11.5842 0.5 9.4012 0.6225C8.09438 0.631707 6.7995 0.880562 5.57673 1.3575C4.68198 1.70876 3.86942 2.25223 3.19268 2.95207C2.51594 3.65191 1.99039 4.4922 1.65073 5.4175C1.18953 6.682 0.948893 8.02108 0.93999 9.3725C0.821533 11.63 0.821533 12.295 0.821533 18C0.821533 23.705 0.821533 24.37 0.93999 26.6275C0.958205 27.9837 1.19852 29.3269 1.65073 30.6C1.98889 31.5211 2.51399 32.3565 3.19067 33.05C3.86451 33.754 4.67881 34.2975 5.57673 34.6425C6.7995 35.1194 8.09438 35.3683 9.4012 35.3775C11.5842 35.5 12.2272 35.5 17.744 35.5C23.2607 35.5 23.9037 35.5 26.0867 35.3775C27.3935 35.3683 28.6884 35.1194 29.9112 34.6425C30.8091 34.2975 31.6234 33.754 32.2972 33.05C32.9739 32.3565 33.499 31.5211 33.8372 30.6C34.2979 29.3293 34.5385 27.9846 34.5479 26.6275C34.6664 24.37 34.6664 23.705 34.6664 18C34.6664 12.295 34.6664 11.63 34.5479 9.3725ZM30.2496 23.3725C30.1953 24.4524 29.9724 25.5162 29.5897 26.5225C29.2611 27.3619 28.7727 28.1245 28.1535 28.7649C27.5343 29.4052 26.7969 29.9103 25.9852 30.25C25.0029 30.6238 23.9685 30.8306 22.9222 30.8625C21.5853 30.8625 21.23 30.8625 17.744 30.8625C14.2579 30.8625 13.9026 30.8625 12.5657 30.8625C11.5194 30.8306 10.4851 30.6238 9.50274 30.25C8.66356 29.9275 7.90573 29.413 7.2859 28.745C6.67274 28.1172 6.19922 27.3588 5.89826 26.5225C5.53537 25.5077 5.34085 24.4368 5.3229 23.355C5.3229 21.9725 5.3229 21.605 5.3229 18C5.3229 14.395 5.3229 14.0275 5.3229 12.645C5.34085 11.5632 5.53537 10.4923 5.89826 9.4775C6.21011 8.60968 6.70762 7.82598 7.35359 7.185C7.96336 6.55434 8.69598 6.06516 9.50274 5.75C10.4851 5.37621 11.5194 5.16937 12.5657 5.1375C13.9026 5.1375 14.2579 5.1375 17.744 5.1375C21.23 5.1375 21.5853 5.1375 22.9222 5.1375C23.9685 5.16937 25.0029 5.37621 25.9852 5.75C26.8244 6.07249 27.5822 6.58698 28.202 7.255C28.8152 7.88281 29.2887 8.64123 29.5897 9.4775C29.9511 10.4934 30.1511 11.563 30.1819 12.645C30.1819 14.0275 30.1819 14.395 30.1819 18C30.1819 21.605 30.3004 21.9725 30.2496 23.355V23.3725ZM27.542 10.3525C27.3406 9.78722 27.0229 9.27387 26.6109 8.84787C26.199 8.42187 25.7026 8.09336 25.156 7.885C24.4054 7.61596 23.6149 7.48563 22.8207 7.5C21.5007 7.5 21.1284 7.5 17.744 7.5C14.3595 7.5 13.9872 7.5 12.6672 7.5C11.8689 7.50807 11.0783 7.66211 10.3319 7.955C9.79368 8.1539 9.30253 8.469 8.89113 8.87935C8.47973 9.28971 8.15751 9.78592 7.94587 10.335C7.70012 11.1144 7.58006 11.9303 7.5905 12.75C7.5905 14.115 7.5905 14.5 7.5905 18C7.5905 21.5 7.5905 21.885 7.5905 23.25C7.60728 24.0746 7.75595 24.8906 8.03049 25.665C8.23197 26.2303 8.54964 26.7436 8.96158 27.1696C9.37352 27.5956 9.86993 27.9241 10.4165 28.1325C11.1386 28.4071 11.8984 28.5607 12.6672 28.5875C13.9872 28.5875 14.3595 28.5875 17.744 28.5875C21.1284 28.5875 21.5007 28.5875 22.8207 28.5875C23.619 28.5794 24.4096 28.4254 25.156 28.1325C25.7026 27.9241 26.199 27.5956 26.6109 27.1696C27.0229 26.7436 27.3406 26.2303 27.542 25.665C27.8253 24.8931 27.9742 24.0755 27.982 23.25C27.982 21.885 27.982 21.5 27.982 18C27.982 14.5 27.982 14.115 27.982 12.75C27.9825 11.9236 27.8333 11.1045 27.542 10.335V10.3525ZM17.744 24.685C16.8958 24.685 16.0561 24.512 15.2727 24.1758C14.4894 23.8396 13.7779 23.3469 13.1789 22.726C12.58 22.105 12.1054 21.3679 11.7824 20.5569C11.4594 19.746 11.2943 18.8771 11.2965 18C11.2965 16.6771 11.6761 15.3839 12.3871 14.2842C13.0982 13.1845 14.1088 12.3277 15.291 11.8222C16.4732 11.3168 17.7738 11.1854 19.0282 11.4448C20.2827 11.7041 21.4345 12.3425 22.3379 13.2792C23.2412 14.2159 23.8556 15.4087 24.1031 16.7066C24.3506 18.0045 24.2202 19.3492 23.7283 20.5704C23.2364 21.7916 22.4052 22.8344 21.34 23.5669C20.2747 24.2993 19.0232 24.6885 17.744 24.685ZM24.5129 12.6275C24.1388 12.5866 23.7926 12.4039 23.541 12.1147C23.2894 11.8255 23.1502 11.4503 23.1502 11.0612C23.1502 10.6722 23.2894 10.297 23.541 10.0078C23.7926 9.71861 24.1388 9.53595 24.5129 9.495C24.887 9.53595 25.2332 9.71861 25.4848 10.0078C25.7364 10.297 25.8756 10.6722 25.8756 11.0612C25.8756 11.4503 25.7364 11.8255 25.4848 12.1147C25.2332 12.4039 24.887 12.5866 24.5129 12.6275Z" fill="#907295"/>
</svg>
