<svg width="25" height="25" viewBox="0 0 25 25" fill="none" xmlns="http://www.w3.org/2000/svg">
<path d="M7.99609 2.36032C8.40034 2.36032 8.72852 2.03219 8.72852 1.62789C8.68887 0.656116 7.30317 0.656409 7.26367 1.62789C7.26367 2.03219 7.5919 2.36032 7.99609 2.36032Z" fill="#EB848F" fill-opacity="0.5"/>
<path d="M17.0024 22.6392C16.5982 22.6392 16.27 22.9673 16.27 23.3716C16.3097 24.3434 17.6954 24.3431 17.7349 23.3716C17.7349 22.9673 17.4067 22.6392 17.0024 22.6392Z" fill="#EB848F" fill-opacity="0.5"/>
<path d="M17.0024 2.36032C17.4067 2.36032 17.7349 2.03219 17.7349 1.62789C17.6952 0.656116 16.3095 0.656409 16.27 1.62789C16.27 2.03219 16.5982 2.36032 17.0024 2.36032Z" fill="#EB848F" fill-opacity="0.5"/>
<path d="M7.99609 22.6392C7.59185 22.6392 7.26367 22.9673 7.26367 23.3716C7.30332 24.3434 8.68902 24.3431 8.72852 23.3716C8.72852 22.9673 8.40034 22.6392 7.99609 22.6392Z" fill="#EB848F" fill-opacity="0.5"/>
<path d="M23.3711 8.72885C23.7753 8.72885 24.1035 8.40072 24.1035 7.99642C24.0639 7.02465 22.6782 7.02494 22.6387 7.99642C22.6387 8.40072 22.9668 8.72885 23.3711 8.72885Z" fill="#EB848F" fill-opacity="0.5"/>
<path d="M1.62744 16.2708C1.22319 16.2708 0.89502 16.5989 0.89502 17.0032C0.934668 17.975 2.32036 17.9747 2.35987 17.0032C2.35987 16.5989 2.03164 16.2708 1.62744 16.2708Z" fill="#EB848F" fill-opacity="0.5"/>
<path d="M23.3711 16.2708C22.9668 16.2708 22.6387 16.5989 22.6387 17.0032C22.6783 17.975 24.064 17.9747 24.1035 17.0032C24.1035 16.5989 23.7753 16.2708 23.3711 16.2708Z" fill="#EB848F" fill-opacity="0.5"/>
<path d="M1.62744 8.72885C2.03169 8.72885 2.35987 8.40072 2.35987 7.99642C2.32022 7.02465 0.934522 7.02494 0.89502 7.99642C0.89502 8.40072 1.22319 8.72885 1.62744 8.72885Z" fill="#EB848F" fill-opacity="0.5"/>
<path d="M13.6428 15.2642C13.0352 16.5191 13.3074 18.1334 14.3131 19.1096C14.7243 19.5208 15.1828 19.8627 15.6659 20.1467C16.2416 18.0789 15.7453 16.0826 13.6428 15.2642Z" fill="#EB848F" fill-opacity="0.5"/>
<path d="M11.678 16.7117C11.678 16.2026 11.5668 15.7108 11.3559 15.2642C9.25296 16.0833 8.75794 18.0776 9.33211 20.144C10.611 19.4065 11.6997 18.2886 11.678 16.7117Z" fill="#EB848F" fill-opacity="0.5"/>
<path d="M11.3542 9.73537C11.9464 8.4776 11.7237 6.92837 10.6856 5.88999C10.2743 5.47876 9.81588 5.13701 9.33287 4.85303C8.75738 6.92027 9.2526 8.91603 11.3542 9.73537Z" fill="#EB848F" fill-opacity="0.5"/>
<path d="M13.6445 9.73548C15.7465 8.91546 16.2405 6.92166 15.6665 4.85583C15.1852 5.13787 14.7249 5.47835 14.3131 5.89016C13.275 6.92849 13.0524 8.47771 13.6445 9.73548Z" fill="#EB848F" fill-opacity="0.5"/>
<path d="M12.4992 11.3997C11.8925 11.3997 11.3989 11.8932 11.3989 12.4999C11.4594 13.9596 13.5392 13.9592 13.5994 12.4999C13.5994 11.8932 13.1058 11.3997 12.4992 11.3997Z" fill="#EB848F" fill-opacity="0.5"/>
<path d="M4.85547 9.33259C5.13745 9.81379 5.47798 10.274 5.88975 10.6858C6.86597 11.6917 8.48037 11.9641 9.73526 11.3562C8.91597 9.25339 6.92178 8.75846 4.85547 9.33259Z" fill="#EB848F" fill-opacity="0.5"/>
<path d="M5.88975 14.3135C5.47847 14.7248 5.13657 15.1833 4.85254 15.6664C6.91983 16.2419 8.91563 15.7465 9.73482 13.6449C8.47701 13.0529 6.92784 13.2755 5.88975 14.3135Z" fill="#EB848F" fill-opacity="0.5"/>
<path d="M20.1432 15.6671C19.8611 15.1858 19.5206 14.7254 19.1087 14.3135C18.0777 13.2853 16.5432 13.046 15.2637 13.6449C16.0835 15.7469 18.0774 16.2411 20.1432 15.6671Z" fill="#EB848F" fill-opacity="0.5"/>
<path d="M16.7108 11.6784C17.6171 11.6784 18.4687 11.326 19.1086 10.6859C19.5198 10.2747 19.8616 9.81629 20.1457 9.33329C18.0779 8.75765 16.0817 9.25375 15.2632 11.3562C15.71 11.5672 16.2018 11.6784 16.7108 11.6784Z" fill="#EB848F" fill-opacity="0.5"/>
<path d="M12.4993 5.87424C12.7092 5.50666 12.9688 5.16286 13.2773 4.85441C14.0301 4.10158 14.7567 3.69113 15.148 3.46184C14.4916 2.04363 13.5356 0.877123 12.8551 0.153882C12.6621 -0.0512939 12.3366 -0.0512939 12.1437 0.153882C11.4637 0.876684 10.5084 2.04216 9.85205 3.4591C10.2428 3.68884 10.9649 4.09787 11.7213 4.85422C12.0297 5.16276 12.2895 5.50656 12.4993 5.87424Z" fill="#EB848F" fill-opacity="0.5"/>
<path d="M12.4993 19.1256C12.2895 19.4933 12.0297 19.8371 11.7213 20.1456C10.9649 20.902 10.2428 21.311 9.85205 21.5408C10.5084 22.9578 11.4637 24.1232 12.1437 24.846C12.3367 25.0512 12.6621 25.0512 12.8551 24.846C13.5355 24.1227 14.4916 22.9562 15.148 21.538C14.7567 21.3088 14.0302 20.8983 13.2773 20.1454C12.9689 19.837 12.7092 19.4932 12.4993 19.1256Z" fill="#EB848F" fill-opacity="0.5"/>
<path d="M17.3558 6.54298C17.3557 6.97926 17.2962 7.40602 17.1847 7.81442C17.593 7.70289 18.0197 7.64337 18.4559 7.64332C19.5206 7.64337 20.3246 7.86691 20.7634 7.98141C21.3021 6.51447 21.4508 5.01359 21.4812 4.02101C21.4898 3.73947 21.2596 3.50934 20.9781 3.51793C19.9861 3.54821 18.4866 3.69684 17.0205 4.23468C17.1344 4.6735 17.3558 5.4733 17.3558 6.54298Z" fill="#EB848F" fill-opacity="0.5"/>
<path d="M7.64316 18.4557C7.64321 18.0195 7.70268 17.5928 7.81425 17.1845C7.40586 17.2961 6.9791 17.3556 6.54282 17.3556C5.47314 17.3556 4.67333 17.1343 4.23456 17.0204C3.69672 18.4865 3.54808 19.986 3.51781 20.978C3.50922 21.2595 3.73934 21.4896 4.02089 21.481C5.01347 21.4508 6.51435 21.3019 7.9813 20.7633C7.86675 20.3245 7.64321 19.5204 7.64316 18.4557Z" fill="#EB848F" fill-opacity="0.5"/>
<path d="M24.8463 12.1436C24.1235 11.4637 22.9581 10.5084 21.5411 9.85205C21.3114 10.2428 20.9023 10.9649 20.146 11.7213C19.8375 12.0298 19.4937 12.2894 19.126 12.4993C19.4936 12.7092 19.8374 12.9688 20.1458 13.2772C20.8986 14.0302 21.3091 14.7567 21.5384 15.148C22.9566 14.4916 24.1231 13.5355 24.8463 12.8551C25.0515 12.6621 25.0515 12.3367 24.8463 12.1436Z" fill="#EB848F" fill-opacity="0.5"/>
<path d="M5.87425 12.4993C5.50658 12.2895 5.16278 12.0297 4.85423 11.7213C4.09788 10.9649 3.68885 10.2428 3.45911 9.85205C2.04212 10.5084 0.876686 11.4637 0.153882 12.1437C-0.051294 12.3367 -0.051294 12.6621 0.153882 12.8551C0.877174 13.5355 2.04363 14.4916 3.46185 15.148C3.6911 14.7568 4.10159 14.0302 4.85443 13.2773C5.16288 12.9689 5.50663 12.7092 5.87425 12.4993Z" fill="#EB848F" fill-opacity="0.5"/>
<path d="M18.457 17.3556C18.0208 17.3556 17.594 17.2961 17.1856 17.1845C17.2971 17.5929 17.3566 18.0196 17.3567 18.4558C17.3566 19.5205 17.1331 20.3245 17.0186 20.7633C18.4855 21.302 19.9864 21.4507 20.979 21.4811C21.2605 21.4897 21.4906 21.2595 21.482 20.978C21.4518 19.986 21.3031 18.4865 20.7653 17.0204C20.3265 17.1343 19.5267 17.3556 18.457 17.3556Z" fill="#EB848F" fill-opacity="0.5"/>
<path d="M6.54409 7.64354C6.98032 7.64359 7.40698 7.70306 7.81528 7.81463C7.70371 7.40623 7.64424 6.97947 7.64419 6.54319C7.64419 5.47351 7.86557 4.6737 7.97944 4.23493C6.51337 3.69708 5.01381 3.54845 4.02187 3.51818C3.74032 3.50958 3.51019 3.73971 3.51879 4.02126C3.54906 5.01384 3.69789 6.51473 4.23656 7.98168C4.67533 7.86712 5.47934 7.64359 6.54409 7.64354Z" fill="#EB848F" fill-opacity="0.5"/>
</svg>
